<?xml version="1.0" encoding="utf-8"?>
<!-- Generator: Adobe Illustrator 24.0.1, SVG Export Plug-In . SVG Version: 6.00 Build 0)  -->
<svg version="1.1" id="Layer_1" xmlns="http://www.w3.org/2000/svg" xmlns:xlink="http://www.w3.org/1999/xlink" x="0px" y="0px"
	 viewBox="0 0 560 213.25" style="enable-background:new 0 0 560 213.25;" xml:space="preserve">
<style type="text/css">
	.st0{fill:#E4E4E4;}
	.st1{enable-background:new    ;}
	.st2{fill:#3D3D3D;}
	.st3{fill:none;stroke:#3D3D3D;stroke-miterlimit:10;}
</style>
<rect x="-24.04" y="-6.95" class="st0" width="596.48" height="223.63"/>
<g class="st1">
	<path class="st2" d="M185.24,73.99h6.03v17.74h8.62v5.05h-14.65V73.99z"/>
	<path class="st2" d="M210.3,78.83c5.19,0,7.64,3.79,7.64,8.48c0,1.05-0.14,1.96-0.25,2.38h-9.99c0.56,2.24,2.1,2.94,4.07,2.94
		c1.19,0,2.31-0.35,3.58-1.05l1.96,3.58c-1.89,1.33-4.42,2.03-6.38,2.03c-5.12,0-9.04-3.37-9.04-9.18
		C201.89,82.33,206.02,78.83,210.3,78.83z M212.82,86.04c0-1.47-0.56-2.66-2.38-2.66c-1.33,0-2.45,0.74-2.8,2.66H212.82z"/>
	<path class="st2" d="M221.3,83.94h-2.31v-4.49l2.66-0.21l0.7-4.56h4.98v4.56h4v4.7h-4v5.99c0,1.93,0.98,2.56,2.1,2.56
		c0.56,0,1.12-0.14,1.54-0.28l0.91,4.35c-0.91,0.28-2.21,0.63-4.14,0.63c-4.56,0-6.45-2.87-6.45-7.15V83.94z"/>
	<path class="st2" d="M235.11,82.89c2.24-0.98,3.36-2.35,3.36-4.45c-0.11,0.04-0.25,0.04-0.35,0.04c-1.68,0-3.01-1.12-3.01-2.87
		c0-1.96,1.26-3.22,3.01-3.22c2.45,0,3.72,1.89,3.72,5.12c0,3.5-1.75,6.24-5.47,7.99L235.11,82.89z"/>
	<path class="st2" d="M245.98,91.02c1.61,1.19,3.05,1.75,4.28,1.75c1.26,0,1.75-0.35,1.75-1.05c0-0.91-1.61-1.33-3.36-2.03
		c-2.03-0.81-4.42-2.31-4.42-5.19c0-3.43,2.8-5.68,6.94-5.68c2.87,0,4.91,1.16,6.45,2.31l-2.66,3.58c-1.26-0.91-2.49-1.47-3.57-1.47
		c-1.02,0-1.54,0.28-1.54,0.98c0,0.91,1.54,1.26,3.29,1.89c2.1,0.77,4.49,2.1,4.49,5.26c0,3.29-2.59,5.82-7.5,5.82
		c-2.24,0-4.98-0.98-6.8-2.45L245.98,91.02z"/>
	<path class="st2" d="M268.69,83.94h-2.31v-4.49l2.66-0.21l0.7-4.56h4.98v4.56h4v4.7h-4v5.99c0,1.93,0.98,2.56,2.1,2.56
		c0.56,0,1.12-0.14,1.54-0.28l0.91,4.35c-0.91,0.28-2.21,0.63-4.14,0.63c-4.56,0-6.45-2.87-6.45-7.15V83.94z"/>
	<path class="st2" d="M290.56,85.41c-0.14-1.26-0.91-1.82-2.45-1.82c-1.26,0-2.59,0.49-4.42,1.47l-2.1-3.93
		c2.45-1.47,4.98-2.31,7.71-2.31c4.56,0,7.29,2.45,7.29,8.2v9.74h-4.91l-0.42-1.68h-0.14c-1.4,1.26-2.94,2.1-4.84,2.1
		c-3.29,0-5.26-2.52-5.26-5.4C281.02,88.15,283.83,86.12,290.56,85.41z M288.38,92.56c0.98,0,1.54-0.49,2.17-1.19v-2.38
		c-2.87,0.42-3.79,1.33-3.79,2.31C286.77,92.11,287.33,92.56,288.38,92.56z"/>
	<path class="st2" d="M300.58,72.38h5.89v12.97h0.14l4.84-6.1h6.52l-6.24,7.29l6.59,10.23h-6.52l-3.5-6.24l-1.82,2.03v4.21h-5.89
		V72.38z"/>
	<path class="st2" d="M326.86,78.83c5.19,0,7.64,3.79,7.64,8.48c0,1.05-0.14,1.96-0.25,2.38h-9.99c0.56,2.24,2.1,2.94,4.07,2.94
		c1.19,0,2.31-0.35,3.58-1.05l1.96,3.58c-1.89,1.33-4.42,2.03-6.38,2.03c-5.12,0-9.04-3.37-9.04-9.18
		C318.45,82.33,322.59,78.83,326.86,78.83z M329.39,86.04c0-1.47-0.56-2.66-2.38-2.66c-1.33,0-2.45,0.74-2.8,2.66H329.39z"/>
	<path class="st2" d="M354.13,85.41c-0.14-1.26-0.91-1.82-2.45-1.82c-1.26,0-2.59,0.49-4.42,1.47l-2.1-3.93
		c2.45-1.47,4.98-2.31,7.71-2.31c4.56,0,7.29,2.45,7.29,8.2v9.74h-4.91l-0.42-1.68h-0.14c-1.4,1.26-2.94,2.1-4.84,2.1
		c-3.29,0-5.26-2.52-5.26-5.4C344.6,88.15,347.4,86.12,354.13,85.41z M351.96,92.56c0.98,0,1.54-0.49,2.17-1.19v-2.38
		c-2.87,0.42-3.79,1.33-3.79,2.31C350.34,92.11,350.9,92.56,351.96,92.56z"/>
</g>
<g class="st1">
	<path class="st2" d="M149.46,114.44h6.03v18.44c0,1.19,0.56,1.54,0.98,1.54c0.21,0,0.35,0,0.63-0.07l0.7,4.42
		c-0.63,0.28-1.61,0.49-2.94,0.49c-4.07,0-5.4-2.66-5.4-6.59V114.44z"/>
	<path class="st2" d="M167.68,120.89c4.49,0,8.69,3.37,8.69,9.18c0,5.82-4.21,9.18-8.69,9.18s-8.69-3.37-8.69-9.18
		C158.99,124.25,163.2,120.89,167.68,120.89z M167.68,134.42c1.82,0,2.52-1.68,2.52-4.35c0-2.66-0.7-4.35-2.52-4.35
		c-1.82,0-2.52,1.68-2.52,4.35C165.16,132.73,165.86,134.42,167.68,134.42z"/>
	<path class="st2" d="M187.31,120.89c4.49,0,8.69,3.37,8.69,9.18c0,5.82-4.21,9.18-8.69,9.18s-8.69-3.37-8.69-9.18
		C178.62,124.25,182.82,120.89,187.31,120.89z M187.31,134.42c1.82,0,2.52-1.68,2.52-4.35c0-2.66-0.7-4.35-2.52-4.35
		c-1.82,0-2.52,1.68-2.52,4.35C184.79,132.73,185.49,134.42,187.31,134.42z"/>
	<path class="st2" d="M199.16,114.44h5.89v12.97h0.14l4.84-6.1h6.52l-6.24,7.29l6.59,10.23h-6.52l-3.5-6.24l-1.82,2.03v4.21h-5.89
		V114.44z"/>
	<path class="st2" d="M235.39,127.47c-0.14-1.26-0.91-1.82-2.45-1.82c-1.26,0-2.59,0.49-4.42,1.47l-2.1-3.93
		c2.45-1.47,4.98-2.31,7.71-2.31c4.56,0,7.29,2.45,7.29,8.2v9.74h-4.91l-0.42-1.68h-0.14c-1.4,1.26-2.94,2.1-4.84,2.1
		c-3.29,0-5.26-2.52-5.26-5.4C225.86,130.21,228.66,128.18,235.39,127.47z M233.22,134.62c0.98,0,1.54-0.49,2.17-1.19v-2.38
		c-2.87,0.42-3.79,1.33-3.79,2.31C231.61,134.17,232.17,134.62,233.22,134.62z"/>
	<path class="st2" d="M246.19,126h-2.31v-4.49l2.66-0.21l0.7-4.56h4.98v4.56h4v4.7h-4V132c0,1.93,0.98,2.56,2.1,2.56
		c0.56,0,1.12-0.14,1.54-0.28l0.91,4.35c-0.91,0.28-2.21,0.63-4.14,0.63c-4.56,0-6.45-2.87-6.45-7.15V126z"/>
	<path class="st2" d="M267.57,126h-2.31v-4.49l2.66-0.21l0.7-4.56h4.98v4.56h4v4.7h-4V132c0,1.93,0.98,2.56,2.1,2.56
		c0.56,0,1.12-0.14,1.54-0.28l0.91,4.35c-0.91,0.28-2.21,0.63-4.14,0.63c-4.56,0-6.45-2.87-6.45-7.15V126z"/>
	<path class="st2" d="M280.81,114.44h6.03v5.68l-0.28,3.01c1.19-1.05,2.87-2.24,5.26-2.24c3.86,0,5.47,2.8,5.47,7.15v10.79h-6.03
		v-10.02c0-2.24-0.56-2.8-1.75-2.8c-1.12,0-1.75,0.49-2.66,1.33v11.5h-6.03V114.44z"/>
	<path class="st2" d="M308.71,120.89c5.19,0,7.64,3.79,7.64,8.48c0,1.05-0.14,1.96-0.25,2.38h-9.99c0.56,2.24,2.1,2.94,4.07,2.94
		c1.19,0,2.31-0.35,3.58-1.05l1.96,3.58c-1.89,1.33-4.42,2.03-6.38,2.03c-5.12,0-9.04-3.37-9.04-9.18
		C300.3,124.39,304.43,120.89,308.71,120.89z M311.23,128.11c0-1.47-0.56-2.66-2.38-2.66c-1.33,0-2.45,0.74-2.8,2.66H311.23z"/>
	<path class="st2" d="M333.38,120.89c1.89,0,3.01,0.7,4.07,1.75l-0.21-2.52v-5.68h6.03v24.39h-4.91l-0.42-1.61h-0.14
		c-1.19,1.19-2.87,2.03-4.42,2.03c-4.35,0-7.15-3.5-7.15-9.18C326.23,124.32,329.81,120.89,333.38,120.89z M334.99,134.34
		c0.91,0,1.61-0.28,2.24-1.26v-6.45c-0.7-0.63-1.61-0.84-2.38-0.84c-1.26,0-2.45,1.12-2.45,4.21
		C332.4,133.15,333.38,134.34,334.99,134.34z"/>
	<path class="st2" d="M356.3,127.47c-0.14-1.26-0.91-1.82-2.45-1.82c-1.26,0-2.59,0.49-4.42,1.47l-2.1-3.93
		c2.45-1.47,4.98-2.31,7.71-2.31c4.56,0,7.29,2.45,7.29,8.2v9.74h-4.91l-0.42-1.68h-0.14c-1.4,1.26-2.94,2.1-4.84,2.1
		c-3.29,0-5.26-2.52-5.26-5.4C346.77,130.21,349.57,128.18,356.3,127.47z M354.13,134.62c0.98,0,1.54-0.49,2.17-1.19v-2.38
		c-2.87,0.42-3.79,1.33-3.79,2.31C352.52,134.17,353.08,134.62,354.13,134.62z"/>
	<path class="st2" d="M367.1,126h-2.31v-4.49l2.66-0.21l0.7-4.56h4.98v4.56h4v4.7h-4V132c0,1.93,0.98,2.56,2.1,2.56
		c0.56,0,1.12-0.14,1.54-0.28l0.91,4.35c-0.91,0.28-2.21,0.63-4.14,0.63c-4.56,0-6.45-2.87-6.45-7.15V126z"/>
	<path class="st2" d="M388.97,127.47c-0.14-1.26-0.91-1.82-2.45-1.82c-1.26,0-2.59,0.49-4.42,1.47l-2.1-3.93
		c2.45-1.47,4.98-2.31,7.71-2.31c4.56,0,7.29,2.45,7.29,8.2v9.74h-4.91l-0.42-1.68h-0.14c-1.4,1.26-2.94,2.1-4.84,2.1
		c-3.29,0-5.26-2.52-5.26-5.4C379.43,130.21,382.24,128.18,388.97,127.47z M386.79,134.62c0.98,0,1.54-0.49,2.17-1.19v-2.38
		c-2.87,0.42-3.79,1.33-3.79,2.31C385.18,134.17,385.74,134.62,386.79,134.62z"/>
	<path class="st2" d="M402.56,131.96c2.03,0,3.5,1.61,3.5,3.65s-1.47,3.65-3.5,3.65c-2.03,0-3.5-1.61-3.5-3.65
		S400.53,131.96,402.56,131.96z"/>
</g>
<line class="st3" x1="211.11" y1="49.19" x2="347.19" y2="49.19"/>
<line class="st3" x1="211.11" y1="166.77" x2="347.19" y2="166.77"/>
</svg>
