<?xml version="1.0" encoding="utf-8"?>
<!-- Generator: Adobe Illustrator 24.0.1, SVG Export Plug-In . SVG Version: 6.00 Build 0)  -->
<svg version="1.1" id="Layer_1" xmlns="http://www.w3.org/2000/svg" xmlns:xlink="http://www.w3.org/1999/xlink" x="0px" y="0px"
	 viewBox="0 0 560 69.47" style="enable-background:new 0 0 560 69.47;" xml:space="preserve">
<style type="text/css">
	.st0{enable-background:new    ;}
	.st1{fill:#FF0000;}
	.st2{fill:#868686;}
</style>
<g class="st0">
	<path class="st1" d="M55.5,29.71c-1.25-1.37-3.75-2.75-5.99-2.75c-3.87,0-6.93,2.68-7.3,10.68c1.94-2.56,5.31-3.93,7.43-3.93
		c6.74,0,11.99,3.75,11.99,12.24c0,8.49-6.24,13.49-13.74,13.49c-7.62,0-15.49-5.49-15.49-19.86c0-14.36,7.87-21.23,16.36-21.23
		c5.62,0,9.74,2.37,12.36,5L55.5,29.71z M51.88,45.95c0-3.81-2.12-4.75-4.37-4.75c-1.81,0-3.62,0.94-5.06,3.37
		c0.87,5.56,3.25,6.87,5.18,6.87C49.88,51.44,51.88,50.13,51.88,45.95z"/>
	<path class="st1" d="M72.86,39.2v-0.25c-3.12-2.37-5.25-5.25-5.25-9.37c0-6.99,5.49-11.24,13.24-11.24
		c7.37,0,12.36,4.25,12.36,10.99c0,3.62-2.25,6.49-5.06,8.3v0.25c3.87,2.06,6.81,5.18,6.81,10.43c0,6.37-5.81,11.11-14.49,11.11
		c-8.05,0-14.11-4.37-14.11-10.86C66.37,43.95,69.12,41.2,72.86,39.2z M80.73,52.06c2.37,0,4.31-1.12,4.31-4.12
		c0-2.87-2.75-4-7.43-5.99c-1.19,1.37-2.06,3.37-2.06,5.37C75.55,50.44,77.98,52.06,80.73,52.06z M84.6,30.09
		c0-2.75-1.5-4.37-4-4.37c-1.94,0-3.62,1.12-3.62,3.87c0,2.62,2.12,4,5.87,5.5C83.98,33.46,84.6,31.83,84.6,30.09z"/>
	<path class="st1" d="M98.84,30.21c0-8.12,4.5-12.86,10.49-12.86s10.49,4.75,10.49,12.86c0,8.12-4.5,12.99-10.49,12.99
		S98.84,38.33,98.84,30.21z M112.45,30.21c0-5.49-1.5-6.99-3.12-6.99c-1.62,0-3.12,1.5-3.12,6.99c0,5.5,1.5,7.12,3.12,7.12
		C110.95,37.33,112.45,35.71,112.45,30.21z M110.83,59.43l21.73-42.08h5.99l-21.73,42.08H110.83z M129.43,46.44
		c0-8.12,4.5-12.86,10.49-12.86s10.49,4.75,10.49,12.86s-4.5,12.99-10.49,12.99S129.43,54.56,129.43,46.44z M143.04,46.44
		c0-5.49-1.5-6.99-3.12-6.99c-1.62,0-3.12,1.5-3.12,6.99c0,5.5,1.5,7.12,3.12,7.12C141.55,53.56,143.04,51.94,143.04,46.44z"/>
</g>
<g class="st0">
</g>
<g class="st0">
	<path class="st2" d="M170.15,13.6h1.87v13.36v6.74c3.25-3.25,6.37-5.62,10.49-5.62c6.12,0,8.99,3.62,8.99,11.36v19.23h-1.87V39.7
		c0-6.62-2.12-9.87-7.24-9.87c-3.75,0-6.49,2-10.37,5.99v22.85h-1.87V13.6z"/>
	<path class="st2" d="M220.6,40.08c0.12-4.87-1.12-10.24-7.37-10.24c-4.25,0-7.87,2.12-9.74,3.62l-1-1.5
		c1.87-1.37,5.99-3.87,10.86-3.87c6.99,0,9.12,5.24,9.12,11.24v19.36h-1.62l-0.25-4h-0.12c-3.12,2.5-6.87,4.75-10.86,4.75
		c-4.62,0-8.62-2.37-8.62-8.05C201,44.7,207.12,41.57,220.6,40.08z M209.74,57.68c3.62,0,6.87-1.75,10.86-5.12V41.7
		c-13.11,1.5-17.61,4.5-17.61,9.62C203,55.94,206.12,57.68,209.74,57.68z"/>
	<path class="st2" d="M244.33,28.09c3.62,0,6.12,1.37,9.24,3.75l-0.12-5.62V13.6h1.87v45.08h-1.62l-0.25-4h-0.12
		c-2.5,2.5-5.87,4.75-9.99,4.75c-7.49,0-12.36-5.49-12.36-15.61C230.97,34.21,237.09,28.09,244.33,28.09z M243.46,57.68
		c3.5,0,6.62-1.87,9.99-5.25V33.96c-3.37-3-6.12-4.12-9.24-4.12c-6.37,0-11.24,6.24-11.24,13.99
		C232.97,52.06,236.71,57.68,243.46,57.68z"/>
</g>
</svg>
