<?xml version="1.0" encoding="utf-8"?>
<!-- Generator: Adobe Illustrator 24.0.1, SVG Export Plug-In . SVG Version: 6.00 Build 0)  -->
<svg version="1.1" id="Layer_1" xmlns="http://www.w3.org/2000/svg" xmlns:xlink="http://www.w3.org/1999/xlink" x="0px" y="0px"
	 viewBox="0 0 560 121.32" style="enable-background:new 0 0 560 121.32;" xml:space="preserve">
<style type="text/css">
	.st0{fill:#3D3D3D;}
	.st1{fill:#8A8A8A;}
	.st2{fill:#FF0000;}
	.st3{fill:#FFFFFF;}
	.st4{fill:#8D8D8D;}
</style>
<g>
	<path class="st0" d="M501.59,6.98H57.9c-6.59,0-11.93,5.34-11.93,11.93v86.58c0,6.59,5.34,11.93,11.93,11.93h443.7
		c6.59,0,11.93-5.34,11.93-11.93V18.9C513.52,12.32,508.18,6.98,501.59,6.98z"/>
	<g>
		<path class="st1" d="M492.39,43.5c0.12,1.62,0.09,3.26-0.17,4.86c-0.64,3.8,1.5,7.32,4.55,10.61c2.51,2.71,2.13,3.45-0.94,5.28
			c-1.08,0.64-1.85,2.45-2.04,3.82c-0.66,4.76-0.81,9.59-1.6,14.32c-0.2,1.17-1.99,2.68-3.28,2.95c-9.42,2-16.23,7.81-22.25,14.8
			c-2.99,3.47-3.77,3.83-7.57,1.45c-5.41-3.38-10.69-6.96-16.07-10.4c-2.71-1.73-4.06-4.08-3.89-7.32
			c0.36-6.97-1.42-13.21-4.89-19.42c-11-19.69-0.24-41.03,24.78-43.89c9.25-1.06,17.88,1.03,25.15,7.27
			C488.97,31.97,491.91,36.94,492.39,43.5z"/>
		<g>
			<path class="st2" d="M295.2,26.24h3.06l25.77,72.06h-3.71l-15.07-43.23c-3.06-8.74-5.68-16.16-8.3-25.11h-0.44
				c-2.62,8.95-5.24,16.38-8.3,25.11L272.93,98.3h-3.49L295.2,26.24z M280.57,69.48h31.99v3.06h-31.99V69.48z"/>
			<path class="st2" d="M336.03,26.24h3.49V98.3h-3.49V26.24z"/>
			<path class="st2" d="M361.36,26.24h5.68l15.5,43.67c1.97,5.46,3.93,10.92,5.9,16.38h0.44c1.97-5.46,3.71-10.92,5.68-16.38
				l15.5-43.67h5.68V98.3h-3.49V48.08c0-5.68,0.22-12.88,0.44-18.78h-0.44l-5.57,15.94L390.4,90.22h-3.71l-16.38-44.98l-5.68-15.94
				h-0.44c0.22,5.9,0.44,13.1,0.44,18.78V98.3h-3.28V26.24z"/>
		</g>
		<path class="st3" d="M61.43,26.24h3.71l9.61,43.67c1.75,7.86,3.49,15.72,5.24,23.58h0.44c1.75-7.86,3.71-15.72,5.68-23.58
			l11.79-43.67h3.93l11.79,43.67c1.97,7.86,3.93,15.72,5.9,23.58h0.44c1.75-7.86,3.28-15.72,5.02-23.58l9.61-43.67h3.49L121.48,98.3
			h-3.49l-13.98-51.75c-1.31-5.68-2.62-10.48-3.93-16.16h-0.44c-1.31,5.68-2.84,10.48-4.15,16.16L81.74,98.3h-3.49L61.43,26.24z"/>
		<path class="st3" d="M147.46,72.32c0-17.03,10.92-27.51,22.49-27.51c12.01,0,19.65,8.52,19.65,24.02c0,1.09,0,2.18-0.22,3.49
			h-38.43c0,13.98,8.08,24.24,20.53,24.24c5.9,0,10.48-1.97,14.41-4.8l1.53,2.84c-3.93,2.4-8.3,5.02-16.16,5.02
			C158.16,99.61,147.46,89.35,147.46,72.32z M186.33,69.26c0-14.41-6.55-21.4-16.38-21.4c-9.39,0-17.91,8.08-19,21.4H186.33z"/>
		<path class="st3" d="M207.72,93.06h-0.22l-0.44,5.24h-2.84V19.47h3.28v23.36l-0.22,10.48c5.46-4.59,12.01-8.52,18.56-8.52
			c14.19,0,20.96,10.48,20.96,26.64c0,17.69-10.7,28.17-23.15,28.17C218.64,99.61,212.74,96.99,207.72,93.06z M243.31,71.44
			c0-13.32-4.8-23.58-17.69-23.58c-5.46,0-11.57,3.27-18.12,9.17v32.32c6.11,5.24,12.23,7.21,16.38,7.21
			C235.24,96.55,243.31,86.07,243.31,71.44z"/>
		<g>
			<path class="st3" d="M463.92,30.39l2.28,6.4c0.8,0.33,1.2,0.5,2,0.83l6.13-2.92c0.97,0.97,0.97,0.97,1.94,1.94l-2.92,6.13
				c0.33,0.8,0.5,1.2,0.83,2l6.4,2.28c0,1.37,0,1.37,0,2.74l-6.4,2.28c-0.33,0.8-0.5,1.2-0.83,2l2.92,6.13
				c-0.97,0.97-0.97,0.97-1.94,1.94l-6.13-2.92c-0.8,0.33-1.2,0.5-2,0.83l-2.28,6.4c-1.37,0-1.37,0-2.74,0l-2.28-6.4
				c-0.8-0.33-1.2-0.5-2-0.83l-6.13,2.92c-0.97-0.97-0.97-0.97-1.94-1.94l2.92-6.13c-0.33-0.8-0.5-1.2-0.83-2l-6.4-2.28
				c0-1.37,0-1.37,0-2.74l6.4-2.28c0.33-0.8,0.5-1.2,0.83-2l-2.92-6.13c0.97-0.97,0.97-0.97,1.94-1.94l6.13,2.92
				c0.8-0.33,1.2-0.5,2-0.83l2.28-6.4C462.54,30.39,462.55,30.39,463.92,30.39z"/>
			<circle class="st4" cx="462.54" cy="48.16" r="4.5"/>
		</g>
	</g>
</g>
</svg>
