<?xml version="1.0" encoding="utf-8"?>
<!-- Generator: Adobe Illustrator 24.0.1, SVG Export Plug-In . SVG Version: 6.00 Build 0)  -->
<svg version="1.1" id="Layer_1" xmlns="http://www.w3.org/2000/svg" xmlns:xlink="http://www.w3.org/1999/xlink" x="0px" y="0px"
	 viewBox="0 0 560 380.04" style="enable-background:new 0 0 560 380.04;" xml:space="preserve">
<style type="text/css">
	.st0{fill:#E4E4E4;}
	.st1{fill:#ABABAB;}
	.st2{fill:#3D3D3D;}
	.st3{clip-path:url(#SVGID_2_);fill:#C8C8C8;}
	.st4{fill:#D6D6D6;}
	.st5{font-family:'SourceSansPro-Bold';}
	.st6{font-size:35.8711px;}
	.st7{fill:#FF0000;}
	.st8{fill:#FFFFFF;}
	.st9{font-size:63.5824px;}
</style>
<rect x="95.37" y="16.85" class="st0" width="361.65" height="204.11"/>
<g>
	<polygon class="st1" points="310.38,290.98 246.97,290.98 254.47,242.76 303.37,242.76 	"/>
	<path class="st2" d="M455.62,13.54h-353.9c-5.51,0-9.99,4.47-9.99,9.99v224.43c0,5.51,4.47,9.99,9.99,9.99h353.9
		c5.51,0,9.99-4.47,9.99-9.99V23.53C465.61,18.02,461.14,13.54,455.62,13.54z M451.74,215.1H105.61V24.11h346.13V215.1z"/>
	<g>
		<defs>
			<path id="SVGID_1_" d="M455.62,13.54h-353.9c-5.51,0-9.99,4.47-9.99,9.99v224.43c0,5.51,4.47,9.99,9.99,9.99h353.9
				c5.51,0,9.99-4.47,9.99-9.99V23.53C465.61,18.02,461.14,13.54,455.62,13.54z M451.74,215.1H105.61V24.11h346.13V215.1z"/>
		</defs>
		<clipPath id="SVGID_2_">
			<use xlink:href="#SVGID_1_"  style="overflow:visible;"/>
		</clipPath>
		<rect x="79.19" y="225.91" class="st3" width="412.18" height="48.88"/>
	</g>
	<path class="st4" d="M224.93,299.56h106.38c3.68,0,5.46-4.51,2.77-7.03l-1.27-1.19c-5.69-5.33-13.2-8.3-21-8.3h-67.07
		c-7.03,0-13.85,2.41-19.32,6.83l-3.05,2.46C219.4,294.75,221.1,299.56,224.93,299.56z"/>
</g>
<circle class="st2" cx="278.67" cy="241.76" r="8.92"/>
<text transform="matrix(1 0 0 1 182.7014 94.1968)" class="st2 st5 st6">empty links</text>
<path class="st7" d="M412.96,181.73H145.33c-3.07,0-5.56-2.49-5.56-5.56v-59.02h278.75v59.02
	C418.52,179.24,416.03,181.73,412.96,181.73z"/>
<text transform="matrix(1 0 0 1 159.2495 170.3153)" class="st8 st5 st9">href=“#”</text>
</svg>
