<?xml version="1.0" encoding="utf-8"?>
<!-- Generator: Adobe Illustrator 24.0.1, SVG Export Plug-In . SVG Version: 6.00 Build 0)  -->
<svg version="1.1" id="Layer_1" xmlns="http://www.w3.org/2000/svg" xmlns:xlink="http://www.w3.org/1999/xlink" x="0px" y="0px"
	 viewBox="0 0 560 380.04" style="enable-background:new 0 0 560 380.04;" xml:space="preserve">
<style type="text/css">
	.st0{fill:#E4E4E4;}
	.st1{fill:#ABABAB;}
	.st2{fill:#3D3D3D;}
	.st3{clip-path:url(#SVGID_2_);fill:#C8C8C8;}
	.st4{fill:#D6D6D6;}
	.st5{enable-background:new    ;}
	.st6{fill:#FF0000;}
	.st7{fill:#FFFFFF;}
</style>
<rect x="95.37" y="16.85" class="st0" width="361.65" height="204.11"/>
<g>
	<polygon class="st1" points="310.38,290.98 246.97,290.98 254.47,242.76 303.37,242.76 	"/>
	<path class="st2" d="M455.62,13.54h-353.9c-5.51,0-9.99,4.47-9.99,9.99v224.43c0,5.51,4.47,9.99,9.99,9.99h353.9
		c5.51,0,9.99-4.47,9.99-9.99V23.53C465.61,18.02,461.14,13.54,455.62,13.54z M451.74,215.1H105.61V24.11h346.13V215.1z"/>
	<g>
		<g>
			<defs>
				<path id="SVGID_1_" d="M455.62,13.54h-353.9c-5.51,0-9.99,4.47-9.99,9.99v224.43c0,5.51,4.47,9.99,9.99,9.99h353.9
					c5.51,0,9.99-4.47,9.99-9.99V23.53C465.61,18.02,461.14,13.54,455.62,13.54z M451.74,215.1H105.61V24.11h346.13V215.1z"/>
			</defs>
			<clipPath id="SVGID_2_">
				<use xlink:href="#SVGID_1_"  style="overflow:visible;"/>
			</clipPath>
			<rect x="79.19" y="225.91" class="st3" width="412.18" height="48.88"/>
		</g>
	</g>
	<path class="st4" d="M224.93,299.56h106.38c3.68,0,5.46-4.51,2.77-7.03l-1.27-1.19c-5.69-5.33-13.2-8.3-21-8.3h-67.07
		c-7.03,0-13.85,2.41-19.32,6.83l-3.05,2.46C219.4,294.75,221.1,299.56,224.93,299.56z"/>
</g>
<circle class="st2" cx="278.67" cy="241.76" r="8.92"/>
<g class="st5">
	<path class="st2" d="M192.39,75.97c5.06,0,7.57,3.7,7.57,8.54c0,0.93-0.11,1.79-0.21,2.22h-10.65c0.47,2.69,2.26,3.88,4.63,3.88
		c1.33,0,2.55-0.4,3.84-1.18l1.76,3.19c-1.83,1.25-4.2,2.01-6.31,2.01c-5.09,0-9-3.44-9-9.33
		C183.99,79.52,188.12,75.97,192.39,75.97z M195.47,83.47c0-2.04-0.86-3.48-2.98-3.48c-1.65,0-3.08,1.11-3.44,3.48H195.47z"/>
	<path class="st2" d="M203.61,76.4h4.31l0.36,2.3h0.14c1.47-1.47,3.05-2.73,5.38-2.73c2.51,0,4.02,1.08,4.91,2.98
		c1.58-1.61,3.23-2.98,5.6-2.98c3.84,0,5.56,2.73,5.56,7.17V94.2h-5.27V83.83c0-2.58-0.68-3.37-2.19-3.37c-0.9,0-1.9,0.57-3.05,1.72
		V94.2h-5.27V83.83c0-2.58-0.68-3.37-2.19-3.37c-0.86,0-1.9,0.57-3.01,1.72V94.2h-5.27V76.4z"/>
	<path class="st2" d="M239.63,95.6v5.2h-5.27V76.4h4.31l0.36,1.76h0.14c1.4-1.26,3.19-2.19,5.06-2.19c4.31,0,6.96,3.55,6.96,9.04
		c0,6.1-3.66,9.61-7.5,9.61c-1.54,0-2.98-0.68-4.23-1.87L239.63,95.6z M242.46,90.32c1.83,0,3.3-1.58,3.3-5.24
		c0-3.19-0.97-4.81-3.09-4.81c-1.08,0-2.01,0.5-3.05,1.61v7.28C240.56,90.04,241.57,90.32,242.46,90.32z"/>
	<path class="st2" d="M255.63,80.53h-2.44v-3.91l2.73-0.21l0.61-4.74h4.38v4.74h4.27v4.12h-4.27v7.14c0,2.01,0.9,2.83,2.3,2.83
		c0.57,0,1.22-0.18,1.69-0.36l0.83,3.84c-0.93,0.29-2.22,0.65-3.95,0.65c-4.41,0-6.13-2.76-6.13-6.89V80.53z"/>
	<path class="st2" d="M270.23,96.99c1.76,0,2.65-0.93,3.12-2.33l0.25-0.93l-6.85-17.33h5.31l2.55,7.64c0.5,1.61,0.93,3.3,1.4,5.06
		h0.14c0.4-1.69,0.79-3.37,1.22-5.06l2.15-7.64h5.06l-6.17,17.97c-1.69,4.48-3.59,6.78-7.78,6.78c-1.08,0-1.79-0.14-2.51-0.36
		l0.93-4.02C269.37,96.85,269.83,96.99,270.23,96.99z"/>
	<path class="st2" d="M294.8,69.05h5.27v19.84c0,1.11,0.5,1.47,0.93,1.47c0.21,0,0.36,0,0.65-0.07l0.65,3.91
		c-0.57,0.25-1.47,0.43-2.65,0.43c-3.62,0-4.84-2.37-4.84-5.96V69.05z"/>
	<path class="st2" d="M304.63,71.02c0-1.61,1.29-2.73,3.05-2.73c1.79,0,3.05,1.11,3.05,2.73s-1.26,2.76-3.05,2.76
		C305.92,73.78,304.63,72.64,304.63,71.02z M305.06,76.4h5.27V94.2h-5.27V76.4z"/>
	<path class="st2" d="M314.96,76.4h4.31l0.36,2.26h0.14c1.51-1.43,3.3-2.69,5.7-2.69c3.87,0,5.52,2.73,5.52,7.17V94.2h-5.27V83.83
		c0-2.58-0.68-3.37-2.19-3.37c-1.33,0-2.15,0.61-3.3,1.72V94.2h-5.27V76.4z"/>
	<path class="st2" d="M335.47,69.05h5.13v14.42h0.14l5.63-7.07h5.74l-6.24,7.32l6.71,10.47h-5.7l-4.02-6.92l-2.26,2.55v4.38h-5.13
		V69.05z"/>
	<path class="st2" d="M355.92,88.85c1.61,1.22,3.08,1.87,4.59,1.87c1.58,0,2.26-0.57,2.26-1.51c0-1.18-1.79-1.72-3.62-2.44
		c-2.15-0.83-4.7-2.3-4.7-5.24c0-3.3,2.69-5.56,6.82-5.56c2.73,0,4.74,1.11,6.28,2.26l-2.37,3.16c-1.29-0.93-2.51-1.51-3.77-1.51
		c-1.36,0-2.01,0.5-2.01,1.4c0,1.15,1.65,1.58,3.48,2.26c2.26,0.83,4.81,2.08,4.81,5.34c0,3.23-2.55,5.74-7.32,5.74
		c-2.33,0-5.02-1-6.82-2.48L355.92,88.85z"/>
</g>
<path class="st6" d="M412.96,181.73H145.33c-3.07,0-5.56-2.49-5.56-5.56v-59.02h278.75v59.02
	C418.52,179.24,416.03,181.73,412.96,181.73z"/>
<g class="st5">
	<path class="st7" d="M163.38,125.74h9.35v10.94l-0.44,5.66c2.35-2.1,5.47-4.32,9.73-4.32c6.87,0,9.79,4.83,9.79,12.72v19.58h-9.35
		v-18.38c0-4.58-1.21-5.98-3.88-5.98c-2.35,0-3.81,1.08-5.85,3.05v21.3h-9.35V125.74z"/>
	<path class="st7" d="M199.69,138.78h7.63l0.64,5.53h0.25c2.29-4.26,5.72-6.29,8.96-6.29c1.78,0,2.86,0.25,3.75,0.64l-1.53,8.07
		c-1.14-0.32-2.1-0.51-3.43-0.51c-2.35,0-5.28,1.53-6.93,5.79v18.31h-9.35V138.78z"/>
	<path class="st7" d="M237.39,138.01c8.97,0,13.42,6.55,13.42,15.13c0,1.65-0.19,3.18-0.38,3.94h-18.88
		c0.83,4.77,4.01,6.87,8.2,6.87c2.35,0,4.51-0.7,6.8-2.1l3.12,5.66c-3.24,2.23-7.44,3.56-11.19,3.56c-9.03,0-15.96-6.1-15.96-16.53
		C222.51,144.31,229.83,138.01,237.39,138.01z M242.86,151.3c0-3.62-1.53-6.17-5.28-6.17c-2.92,0-5.47,1.97-6.1,6.17H242.86z"/>
	<path class="st7" d="M274.78,132.99c-1.08-0.38-2.23-0.64-3.24-0.64c-2.29,0-3.62,1.27-3.62,4.51v1.91h5.66v7.31h-5.66v24.23h-9.35
		v-24.23h-4.2v-6.93l4.2-0.32v-1.72c0-6.68,3.12-12.14,11.64-12.14c2.61,0,4.9,0.64,6.29,1.14L274.78,132.99z"/>
	<path class="st7" d="M276.69,138.65h29.25v6.55h-29.25V138.65z M276.69,153.47h29.25v6.55h-29.25V153.47z"/>
	<path class="st7" d="M322.66,130.96c-3.81,1.91-5.72,4.26-5.72,8.08c0.19-0.06,0.45-0.06,0.64-0.06c2.67,0,4.9,1.78,4.9,4.64
		c0,3.18-2.1,5.21-4.9,5.21c-3.94,0-5.98-3.12-5.98-8.33c0-5.98,2.92-10.62,9.03-13.61L322.66,130.96z M337.72,130.96
		c-3.81,1.91-5.72,4.26-5.72,8.08c0.19-0.06,0.45-0.06,0.64-0.06c2.67,0,4.83,1.78,4.83,4.64c0,3.18-2.04,5.21-4.83,5.21
		c-3.94,0-6.04-3.12-6.04-8.33c0-5.98,2.99-10.62,9.09-13.61L337.72,130.96z"/>
	<path class="st7" d="M349.11,158.43h-4.71v-5.98h5.41l0.89-6.99h-5.02v-5.98h5.79l1.33-10.49h5.34l-1.27,10.49h6.61l1.34-10.49
		h5.34l-1.27,10.49h5.02v5.98h-5.79l-0.83,6.99h5.34v5.98h-6.04l-1.46,11.89h-5.4l1.4-11.89h-6.55l-1.46,11.89h-5.4L349.11,158.43z
		 M361.82,152.45l0.89-6.99h-6.61l-0.83,6.99H361.82z"/>
	<path class="st7" d="M380.32,143.86c3.81-1.91,5.72-4.26,5.72-8.07c-0.19,0.06-0.38,0.06-0.57,0.06c-2.73,0-4.9-1.78-4.9-4.64
		c0-3.18,2.03-5.21,4.9-5.21c3.88,0,5.98,3.05,5.98,8.33c0,5.98-2.99,10.62-9.09,13.61L380.32,143.86z M395.39,143.86
		c3.82-1.91,5.72-4.26,5.72-8.07c-0.19,0.06-0.44,0.06-0.64,0.06c-2.67,0-4.9-1.78-4.9-4.64c0-3.18,2.1-5.21,4.9-5.21
		c3.94,0,5.98,3.05,5.98,8.33c0,5.98-2.92,10.62-9.03,13.61L395.39,143.86z"/>
</g>
</svg>
