<?xml version="1.0" encoding="utf-8"?>
<!-- Generator: Adobe Illustrator 24.0.1, SVG Export Plug-In . SVG Version: 6.00 Build 0)  -->
<svg version="1.1" id="Layer_1" xmlns="http://www.w3.org/2000/svg" xmlns:xlink="http://www.w3.org/1999/xlink" x="0px" y="0px"
	 viewBox="0 0 560 80.81" style="enable-background:new 0 0 560 80.81;" xml:space="preserve">
<style type="text/css">
	.st0{enable-background:new    ;}
	.st1{fill:#3D3D3D;}
</style>
<g class="st0">
	<path class="st1" d="M68.28,29.36h-4.96v-2.25l5.02-0.26l0.4-9.19h2.51v9.19h9.19v2.51h-9.19v20.69c0,4.03,0.99,6.74,5.36,6.74
		c1.19,0,2.84-0.46,3.97-0.99l0.79,2.38c-1.85,0.66-3.83,1.19-5.16,1.19c-6.15,0-7.93-3.9-7.93-9.59V29.36z"/>
	<path class="st1" d="M88.19,11.05h2.91V24.8v7.01c3.31-3.31,6.61-5.75,10.98-5.75c6.55,0,9.59,3.97,9.59,12.17v20.36h-2.91V38.62
		c0-6.74-2.12-9.92-7.27-9.92c-3.77,0-6.48,1.98-10.38,5.95v23.93h-2.91V11.05z"/>
	<path class="st1" d="M134.27,26.06c7.54,0,12.17,5.36,12.17,14.68c0,0.79,0,1.59-0.13,2.38h-22.88c0.13,8,4.83,13.75,11.97,13.75
		c3.44,0,6.15-1.12,8.53-2.84l1.19,2.25c-2.51,1.52-5.36,3.11-9.98,3.11c-8.13,0-14.68-6.21-14.68-16.59
		C120.45,32.41,127.2,26.06,134.27,26.06z M143.66,40.87c0-8.13-3.64-12.3-9.32-12.3c-5.42,0-10.25,4.69-10.91,12.3H143.66z"/>
	<path class="st1" d="M179.76,26.06c7.67,0,14.28,6.08,14.28,16.73c0,10.51-6.61,16.59-14.28,16.59c-7.6,0-14.21-6.08-14.21-16.59
		C165.55,32.14,172.16,26.06,179.76,26.06z M179.76,56.8c6.41,0,11.24-5.69,11.24-14.02c0-8.4-4.83-14.15-11.24-14.15
		c-6.41,0-11.17,5.75-11.17,14.15C168.59,51.12,173.35,56.8,179.76,56.8z"/>
	<path class="st1" d="M203.57,26.85h2.51l0.26,5.88h0.2c2.12-3.9,5.22-6.68,8.99-6.68c1.19,0,2.12,0.13,3.17,0.66l-0.66,2.64
		c-1.06-0.4-1.65-0.53-2.91-0.53c-2.84,0-6.21,2.18-8.66,8.13v21.62h-2.91V26.85z"/>
	<path class="st1" d="M225.92,57.4v-0.26c-1.59-0.93-2.78-2.65-2.78-5.09c0-2.84,2.05-4.83,3.44-5.82v-0.26
		c-1.98-1.72-3.97-4.89-3.97-8.73c0-6.55,4.96-11.17,11.17-11.17c1.72,0,3.17,0.4,4.17,0.79h10.78v2.45h-7.4
		c2.05,1.79,3.5,4.63,3.5,8c0,6.48-4.83,11.17-11.04,11.17c-1.79,0-3.83-0.46-5.29-1.32c-1.39,1.12-2.58,2.45-2.58,4.56
		c0,2.31,1.32,4.17,6.08,4.17h6.81c7.14,0,10.45,2.25,10.45,7.27c0,5.49-5.88,10.71-15.01,10.71c-8,0-13.02-3.44-13.02-8.79
		C221.22,62.29,223.01,59.51,225.92,57.4z M234.58,71.48c7.14,0,11.7-4.03,11.7-8c0-3.5-2.58-4.83-7.34-4.83h-6.81
		c-0.66,0-2.31-0.13-3.97-0.53c-2.91,1.98-4.17,4.43-4.17,6.68C224,68.77,227.83,71.48,234.58,71.48z M241.98,37.23
		c0-5.36-3.7-8.79-8.2-8.79c-4.5,0-8.26,3.37-8.26,8.79c0,5.35,3.83,8.93,8.26,8.93C238.15,46.16,241.98,42.59,241.98,37.23z"/>
	<path class="st1" d="M273.79,38.69c0.13-4.83-1.26-10.05-7.47-10.05c-4.3,0-8,2.12-10.12,3.7l-1.32-2.18
		c2.25-1.59,6.61-4.1,11.77-4.1c7.54,0,10.05,5.42,10.05,12.23v20.3h-2.45l-0.33-4.1h-0.13c-3.24,2.58-7.07,4.89-11.24,4.89
		c-5.02,0-9.26-2.71-9.26-8.73C253.29,43.65,259.71,40.27,273.79,38.69z M263.01,56.87c3.64,0,6.88-1.79,10.78-5.16V40.94
		c-13.02,1.52-17.45,4.56-17.45,9.59C256.33,55.08,259.38,56.87,263.01,56.87z"/>
	<path class="st1" d="M288.07,26.85h2.51l0.26,4.89h0.2c3.24-3.24,6.54-5.69,10.91-5.69c6.54,0,9.59,3.97,9.59,12.17v20.36h-2.91
		V38.62c0-6.74-2.12-9.92-7.27-9.92c-3.77,0-6.48,1.98-10.38,5.95v23.93h-2.91V26.85z"/>
	<path class="st1" d="M322.13,16.6c0-1.65,1.19-2.65,2.64-2.65c1.46,0,2.64,0.99,2.64,2.65c0,1.52-1.19,2.58-2.64,2.58
		C323.32,19.18,322.13,18.13,322.13,16.6z M323.25,26.85h2.91v31.74h-2.91V26.85z"/>
	<path class="st1" d="M334.09,57l18.78-27.64h-16.73v-2.51h20.5v1.52l-18.71,27.64h19.37v2.58h-23.21V57z"/>
	<path class="st1" d="M381.97,38.69c0.13-4.83-1.26-10.05-7.47-10.05c-4.3,0-8,2.12-10.12,3.7l-1.32-2.18
		c2.25-1.59,6.61-4.1,11.77-4.1c7.54,0,10.05,5.42,10.05,12.23v20.3h-2.45l-0.33-4.1h-0.13c-3.24,2.58-7.08,4.89-11.24,4.89
		c-5.02,0-9.26-2.71-9.26-8.73C361.47,43.65,367.88,40.27,381.97,38.69z M371.19,56.87c3.64,0,6.88-1.79,10.78-5.16V40.94
		c-13.03,1.52-17.46,4.56-17.46,9.59C364.51,55.08,367.55,56.87,371.19,56.87z"/>
	<path class="st1" d="M396.98,29.36h-4.96v-2.25l5.02-0.26l0.4-9.19h2.51v9.19h9.19v2.51h-9.19v20.69c0,4.03,0.99,6.74,5.36,6.74
		c1.19,0,2.84-0.46,3.97-0.99l0.79,2.38c-1.85,0.66-3.83,1.19-5.16,1.19c-6.15,0-7.93-3.9-7.93-9.59V29.36z"/>
	<path class="st1" d="M415.76,16.6c0-1.65,1.19-2.65,2.64-2.65c1.45,0,2.64,0.99,2.64,2.65c0,1.52-1.19,2.58-2.64,2.58
		C416.95,19.18,415.76,18.13,415.76,16.6z M416.88,26.85h2.91v31.74h-2.91V26.85z"/>
	<path class="st1" d="M443.59,26.06c7.67,0,14.28,6.08,14.28,16.73c0,10.51-6.61,16.59-14.28,16.59c-7.6,0-14.21-6.08-14.21-16.59
		C429.38,32.14,435.99,26.06,443.59,26.06z M443.59,56.8c6.41,0,11.24-5.69,11.24-14.02c0-8.4-4.83-14.15-11.24-14.15
		s-11.17,5.75-11.17,14.15C432.42,51.12,437.18,56.8,443.59,56.8z"/>
	<path class="st1" d="M467.4,26.85h2.51l0.26,4.89h0.2c3.24-3.24,6.55-5.69,10.91-5.69c6.55,0,9.59,3.97,9.59,12.17v20.36h-2.91
		V38.62c0-6.74-2.12-9.92-7.27-9.92c-3.77,0-6.48,1.98-10.38,5.95v23.93h-2.91V26.85z"/>
</g>
</svg>
