<?xml version="1.0" encoding="utf-8"?>
<!-- Generator: Adobe Illustrator 24.0.1, SVG Export Plug-In . SVG Version: 6.00 Build 0)  -->
<svg version="1.1" id="Layer_1" xmlns="http://www.w3.org/2000/svg" xmlns:xlink="http://www.w3.org/1999/xlink" x="0px" y="0px"
	 viewBox="0 0 90.71 90.71" style="enable-background:new 0 0 90.71 90.71;" xml:space="preserve">
<style type="text/css">
	.st0{fill:#FF0000;}
	.st1{fill:#FFFFFF;}
</style>
<g>
	<path class="st0" d="M77.54,0H13.16C5.89,0,0,5.89,0,13.16v64.38c0,7.27,5.89,13.16,13.16,13.16h64.38
		c7.27,0,13.16-5.89,13.16-13.16V13.16C90.71,5.89,84.81,0,77.54,0z M66.44,44.16H52.78v28.83c0,1.1-0.89,1.99-1.99,1.99H39.92
		c-1.1,0-1.99-0.89-1.99-1.99V44.16H24.27c-1.45,0-2.22-1.7-1.27-2.79l9.97-11.47l11.12-12.8c0.67-0.77,1.87-0.77,2.55,0l11.12,12.8
		l9.97,11.47C68.67,42.46,67.89,44.16,66.44,44.16z"/>
	<path class="st1" d="M57.75,29.89l-11.12-12.8c-0.67-0.77-1.87-0.77-2.55,0l-11.12,12.8l-9.97,11.47
		c-0.95,1.09-0.17,2.79,1.27,2.79h13.67v28.83c0,1.1,0.89,1.99,1.99,1.99h10.87c1.1,0,1.99-0.89,1.99-1.99V44.16h13.67
		c1.45,0,2.22-1.7,1.27-2.79L57.75,29.89z"/>
</g>
</svg>
