<?xml version="1.0" encoding="utf-8"?>
<!-- Generator: Adobe Illustrator 24.0.1, SVG Export Plug-In . SVG Version: 6.00 Build 0)  -->
<svg version="1.1" id="Layer_1" xmlns="http://www.w3.org/2000/svg" xmlns:xlink="http://www.w3.org/1999/xlink" x="0px" y="0px"
	 viewBox="0 0 560 106.46" style="enable-background:new 0 0 560 106.46;" xml:space="preserve">
<style type="text/css">
	.st0{enable-background:new    ;}
	.st1{fill:#FF0000;}
	.st2{fill:#868686;}
</style>
<g class="st0">
	<path class="st1" d="M39.14,76.87v-0.25c-3.12-2.37-5.25-5.25-5.25-9.37c0-6.99,5.49-11.24,13.24-11.24
		c7.37,0,12.36,4.25,12.36,10.99c0,3.62-2.25,6.49-5.06,8.3v0.25c3.87,2.06,6.81,5.18,6.81,10.43c0,6.37-5.81,11.11-14.49,11.11
		c-8.05,0-14.11-4.37-14.11-10.86C32.65,81.61,35.4,78.87,39.14,76.87z M47.01,89.73c2.37,0,4.31-1.12,4.31-4.12
		c0-2.87-2.75-4-7.43-5.99c-1.19,1.37-2.06,3.37-2.06,5.37C41.83,88.11,44.26,89.73,47.01,89.73z M50.88,67.75
		c0-2.75-1.5-4.37-4-4.37c-1.94,0-3.62,1.12-3.62,3.87c0,2.62,2.12,4,5.87,5.5C50.26,71.12,50.88,69.5,50.88,67.75z"/>
	<path class="st1" d="M69.87,84.73c2.37,2.12,5.12,3.75,7.99,3.75c3.75,0,5.87-1.62,5.87-5.12c0-3.37-2.25-5.12-5.37-5.12
		c-2.12,0-3.12,0.38-5.49,1.87l-4.62-3l1-20.35h23.48v8.99H78.48l-0.5,5.74c1.37-0.5,2.43-0.62,3.75-0.62
		c6.87,0,12.74,3.87,12.74,12.24c0,8.87-6.93,13.99-14.99,13.99c-6.49,0-11.11-2.37-14.36-5.62L69.87,84.73z"/>
	<path class="st1" d="M98.84,67.88c0-8.12,4.5-12.86,10.49-12.86s10.49,4.75,10.49,12.86c0,8.12-4.5,12.99-10.49,12.99
		S98.84,75.99,98.84,67.88z M112.45,67.88c0-5.49-1.5-6.99-3.12-6.99c-1.62,0-3.12,1.5-3.12,6.99c0,5.5,1.5,7.12,3.12,7.12
		C110.95,74.99,112.45,73.37,112.45,67.88z M110.83,97.1l21.73-42.08h5.99L116.82,97.1H110.83z M129.43,84.11
		c0-8.12,4.5-12.86,10.49-12.86s10.49,4.75,10.49,12.86s-4.5,12.99-10.49,12.99S129.43,92.23,129.43,84.11z M143.04,84.11
		c0-5.49-1.5-6.99-3.12-6.99c-1.62,0-3.12,1.5-3.12,6.99c0,5.5,1.5,7.12,3.12,7.12C141.55,91.23,143.04,89.6,143.04,84.11z"/>
</g>
<g class="st0">
</g>
<g class="st0">
	<path class="st2" d="M170.15,51.27h1.87v13.36v6.74c3.25-3.25,6.37-5.62,10.49-5.62c6.12,0,8.99,3.62,8.99,11.36v19.23h-1.87V77.37
		c0-6.62-2.12-9.87-7.24-9.87c-3.75,0-6.49,2-10.37,5.99v22.85h-1.87V51.27z"/>
	<path class="st2" d="M220.6,77.74c0.12-4.87-1.12-10.24-7.37-10.24c-4.25,0-7.87,2.12-9.74,3.62l-1-1.5
		c1.87-1.37,5.99-3.87,10.86-3.87c6.99,0,9.12,5.24,9.12,11.24v19.36h-1.62l-0.25-4h-0.12c-3.12,2.5-6.87,4.75-10.86,4.75
		c-4.62,0-8.62-2.37-8.62-8.05C201,82.36,207.12,79.24,220.6,77.74z M209.74,95.35c3.62,0,6.87-1.75,10.86-5.12V79.36
		c-13.11,1.5-17.61,4.5-17.61,9.62C203,93.6,206.12,95.35,209.74,95.35z"/>
	<path class="st2" d="M244.33,65.75c3.62,0,6.12,1.37,9.24,3.75l-0.12-5.62V51.27h1.87v45.08h-1.62l-0.25-4h-0.12
		c-2.5,2.5-5.87,4.75-9.99,4.75c-7.49,0-12.36-5.49-12.36-15.61C230.97,71.87,237.09,65.75,244.33,65.75z M243.46,95.35
		c3.5,0,6.62-1.87,9.99-5.25V71.62c-3.37-3-6.12-4.12-9.24-4.12c-6.37,0-11.24,6.24-11.24,13.99
		C232.97,89.73,236.71,95.35,243.46,95.35z"/>
</g>
</svg>
