<?xml version="1.0" encoding="utf-8"?>
<!-- Generator: Adobe Illustrator 24.0.1, SVG Export Plug-In . SVG Version: 6.00 Build 0)  -->
<svg version="1.1" id="Layer_1" xmlns="http://www.w3.org/2000/svg" xmlns:xlink="http://www.w3.org/1999/xlink" x="0px" y="0px"
	 viewBox="0 0 560 77.73" style="enable-background:new 0 0 560 77.73;" xml:space="preserve">
<style type="text/css">
	.st0{enable-background:new    ;}
	.st1{fill:#3D3D3D;}
	.st2{fill:none;stroke:#3D3D3D;stroke-width:0.5;stroke-miterlimit:10;}
</style>
<g class="st0">
	<path class="st1" d="M173.84,24.12h0.82l6.5,16.58c0.26,0.67,0.8,1,1.61,1h0.56v0.92h-7.23V41.7h0.58c0.75,0,1.28-0.08,1.59-0.25
		c0.21-0.11,0.32-0.29,0.32-0.53c0-0.14-0.03-0.29-0.09-0.44l-1.5-3.85h-7.17l-0.84,2.21c-0.22,0.59-0.33,1.05-0.33,1.4
		c0,0.4,0.19,0.74,0.56,1.03c0.37,0.29,0.91,0.43,1.62,0.43h0.61v0.92h-6.57V41.7c0.7,0,1.26-0.15,1.67-0.46
		c0.41-0.31,0.78-0.89,1.13-1.75L173.84,24.12z M173.49,27.61l-3.25,8.08h6.4L173.49,27.61z"/>
	<path class="st1" d="M192.8,39.22l0.8,0.23c-0.64,2.35-2.04,3.52-4.22,3.52c-1.59,0-2.9-0.53-3.91-1.58
		c-1.01-1.05-1.52-2.46-1.52-4.2c0-2.03,0.56-3.6,1.67-4.71c1.11-1.12,2.42-1.67,3.92-1.67c1.13,0,2.06,0.31,2.79,0.93
		c0.74,0.62,1.1,1.31,1.1,2.07c0,0.46-0.14,0.84-0.41,1.13c-0.27,0.3-0.6,0.45-0.97,0.45c-0.37,0-0.68-0.13-0.93-0.38
		c-0.25-0.25-0.38-0.56-0.38-0.92c0-0.36,0.14-0.7,0.42-1.03c0.13-0.16,0.2-0.28,0.2-0.37c0-0.24-0.16-0.47-0.48-0.69
		c-0.32-0.22-0.75-0.34-1.3-0.34c-1,0-1.75,0.36-2.27,1.09c-0.74,1.05-1.1,2.44-1.1,4.16c0,1.64,0.33,2.88,0.98,3.73
		s1.49,1.27,2.5,1.27C191.08,41.91,192.12,41.01,192.8,39.22z"/>
	<path class="st1" d="M203.94,39.22l0.8,0.23c-0.64,2.35-2.04,3.52-4.22,3.52c-1.59,0-2.9-0.53-3.91-1.58
		c-1.01-1.05-1.52-2.46-1.52-4.2c0-2.03,0.56-3.6,1.67-4.71c1.11-1.12,2.42-1.67,3.92-1.67c1.13,0,2.06,0.31,2.79,0.93
		c0.74,0.62,1.1,1.31,1.1,2.07c0,0.46-0.14,0.84-0.41,1.13c-0.27,0.3-0.6,0.45-0.97,0.45c-0.37,0-0.68-0.13-0.93-0.38
		c-0.25-0.25-0.38-0.56-0.38-0.92c0-0.36,0.14-0.7,0.42-1.03c0.13-0.16,0.2-0.28,0.2-0.37c0-0.24-0.16-0.47-0.48-0.69
		c-0.32-0.22-0.75-0.34-1.3-0.34c-1,0-1.75,0.36-2.27,1.09c-0.74,1.05-1.1,2.44-1.1,4.16c0,1.64,0.33,2.88,0.98,3.73
		s1.49,1.27,2.5,1.27C202.22,41.91,203.26,41.01,203.94,39.22z"/>
	<path class="st1" d="M217.08,36.96h-8.22c0.04,1.75,0.37,2.98,0.98,3.7c0.7,0.81,1.6,1.21,2.68,1.21c1.6,0,2.89-0.91,3.86-2.73
		l0.8,0.34c-1.19,2.32-2.92,3.48-5.17,3.48c-1.54,0-2.83-0.55-3.88-1.67c-1.05-1.11-1.57-2.53-1.57-4.27c0-1.86,0.52-3.37,1.55-4.52
		c1.03-1.15,2.31-1.72,3.82-1.72c1.11,0,2.07,0.29,2.88,0.86c0.81,0.57,1.42,1.39,1.83,2.46C216.91,34.87,217.06,35.82,217.08,36.96
		z M208.85,36.09h4.98c0.29,0,0.52-0.1,0.69-0.3s0.25-0.54,0.25-1.02c0-0.9-0.28-1.66-0.84-2.29c-0.56-0.63-1.22-0.94-1.98-0.94
		c-0.85,0-1.57,0.38-2.16,1.14S208.88,34.57,208.85,36.09z"/>
	<path class="st1" d="M220.24,38.3c0.51,1.41,1.09,2.39,1.75,2.93c0.66,0.54,1.47,0.82,2.43,0.82c0.89,0,1.58-0.19,2.05-0.58
		c0.48-0.39,0.72-0.88,0.72-1.48c0-0.34-0.09-0.64-0.26-0.9c-0.18-0.26-0.42-0.45-0.73-0.58c-0.31-0.13-1.12-0.31-2.42-0.56
		c-1.24-0.25-2.11-0.5-2.6-0.77c-0.49-0.27-0.87-0.64-1.15-1.12c-0.27-0.47-0.41-0.99-0.41-1.54c0-0.84,0.28-1.61,0.85-2.29
		c0.73-0.87,1.75-1.31,3.06-1.31c1,0,1.92,0.31,2.77,0.94L227.1,31h0.5l0.32,4.09h-0.82c-0.36-1.16-0.85-2-1.46-2.51
		c-0.61-0.51-1.37-0.77-2.27-0.77c-0.78,0-1.39,0.19-1.83,0.57c-0.44,0.38-0.66,0.84-0.66,1.39c0,0.48,0.2,0.88,0.61,1.2
		c0.4,0.33,1.19,0.58,2.36,0.77c1.36,0.23,2.24,0.42,2.65,0.58c0.67,0.25,1.19,0.62,1.56,1.13c0.37,0.51,0.55,1.13,0.55,1.87
		c0,1.01-0.4,1.87-1.2,2.57s-1.81,1.05-3.04,1.05c-1.14,0-2.19-0.38-3.17-1.13l-0.9,1.03h-0.65l-0.25-4.57H220.24z"/>
	<path class="st1" d="M231.86,38.3c0.51,1.41,1.09,2.39,1.75,2.93c0.66,0.54,1.47,0.82,2.43,0.82c0.89,0,1.58-0.19,2.05-0.58
		c0.48-0.39,0.72-0.88,0.72-1.48c0-0.34-0.09-0.64-0.26-0.9c-0.18-0.26-0.42-0.45-0.73-0.58c-0.31-0.13-1.12-0.31-2.42-0.56
		c-1.24-0.25-2.11-0.5-2.6-0.77c-0.49-0.27-0.87-0.64-1.15-1.12c-0.27-0.47-0.41-0.99-0.41-1.54c0-0.84,0.28-1.61,0.85-2.29
		c0.73-0.87,1.75-1.31,3.06-1.31c1,0,1.92,0.31,2.77,0.94l0.81-0.86h0.5l0.32,4.09h-0.82c-0.36-1.16-0.85-2-1.46-2.51
		c-0.61-0.51-1.37-0.77-2.27-0.77c-0.78,0-1.39,0.19-1.83,0.57c-0.44,0.38-0.66,0.84-0.66,1.39c0,0.48,0.2,0.88,0.61,1.2
		c0.4,0.33,1.19,0.58,2.36,0.77c1.36,0.23,2.24,0.42,2.65,0.58c0.67,0.25,1.19,0.62,1.56,1.13c0.37,0.51,0.55,1.13,0.55,1.87
		c0,1.01-0.4,1.87-1.2,2.57s-1.81,1.05-3.04,1.05c-1.14,0-2.19-0.38-3.17-1.13l-0.9,1.03h-0.65l-0.25-4.57H231.86z"/>
	<path class="st1" d="M241.87,31.14l4.57-0.13v9.88c0,0.27,0.07,0.46,0.2,0.58c0.19,0.16,0.42,0.25,0.71,0.25h1.3v0.92h-6.53V41.7
		h1.21c0.36,0,0.62-0.09,0.79-0.26s0.25-0.43,0.25-0.77v-7.23c0-0.46-0.13-0.8-0.39-1.04c-0.26-0.23-0.65-0.35-1.16-0.35h-0.94
		V31.14z M245.06,24.29c0.37,0,0.69,0.14,0.97,0.42c0.28,0.28,0.42,0.6,0.42,0.98c0,0.37-0.13,0.69-0.4,0.96
		c-0.27,0.27-0.59,0.4-0.97,0.4c-0.38,0-0.7-0.14-0.97-0.41c-0.27-0.27-0.41-0.59-0.41-0.96c0-0.37,0.14-0.69,0.42-0.97
		C244.38,24.43,244.7,24.29,245.06,24.29z"/>
	<path class="st1" d="M253.55,24.29v8.54c0.48-0.68,1.02-1.19,1.61-1.53s1.23-0.51,1.92-0.51c1.35,0,2.49,0.53,3.42,1.58
		c0.93,1.05,1.4,2.44,1.4,4.17c0,1.87-0.5,3.38-1.5,4.53c-1,1.15-2.24,1.72-3.72,1.72c-0.7,0-1.34-0.14-1.91-0.42
		c-0.57-0.28-1.16-0.75-1.76-1.41c-0.47,0.74-0.92,1.35-1.35,1.83l-0.49-0.17c0.23-0.94,0.34-1.92,0.34-2.94V26.7
		c0-0.4-0.14-0.71-0.42-0.94c-0.28-0.23-0.68-0.34-1.19-0.34h-0.51V24.5L253.55,24.29z M256.64,31.89c-0.92,0-1.68,0.4-2.26,1.21
		c-0.58,0.8-0.87,2.13-0.87,3.99c0,1.76,0.29,3.02,0.86,3.78s1.32,1.14,2.24,1.14c0.83,0,1.5-0.38,2.01-1.13
		c0.64-0.95,0.96-2.3,0.96-4.05c0-1.73-0.28-2.98-0.84-3.76C258.18,32.28,257.48,31.89,256.64,31.89z"/>
	<path class="st1" d="M263.74,31.14l4.57-0.13v9.88c0,0.27,0.07,0.46,0.2,0.58c0.19,0.16,0.42,0.25,0.71,0.25h1.3v0.92h-6.53V41.7
		h1.21c0.36,0,0.62-0.09,0.79-0.26s0.25-0.43,0.25-0.77v-7.23c0-0.46-0.13-0.8-0.39-1.04c-0.26-0.23-0.65-0.35-1.16-0.35h-0.94
		V31.14z M266.93,24.29c0.37,0,0.69,0.14,0.97,0.42c0.28,0.28,0.42,0.6,0.42,0.98c0,0.37-0.13,0.69-0.4,0.96
		c-0.27,0.27-0.59,0.4-0.97,0.4c-0.38,0-0.7-0.14-0.97-0.41c-0.27-0.27-0.41-0.59-0.41-0.96c0-0.37,0.14-0.69,0.42-0.97
		C266.25,24.43,266.57,24.29,266.93,24.29z"/>
	<path class="st1" d="M276.2,24.29v16.64c0,0.23,0.07,0.4,0.21,0.53c0.2,0.16,0.45,0.25,0.75,0.25h1.21v0.92h-6.51V41.7h1.15
		c0.38,0,0.66-0.09,0.84-0.27c0.18-0.18,0.28-0.43,0.28-0.76V26.7c0-0.41-0.11-0.71-0.33-0.89c-0.3-0.26-0.67-0.39-1.12-0.39h-1.03
		V24.5L276.2,24.29z"/>
	<path class="st1" d="M279.55,31.14l4.57-0.13v9.88c0,0.27,0.07,0.46,0.2,0.58c0.19,0.16,0.42,0.25,0.71,0.25h1.3v0.92h-6.53V41.7
		h1.21c0.36,0,0.62-0.09,0.79-0.26c0.17-0.18,0.25-0.43,0.25-0.77v-7.23c0-0.46-0.13-0.8-0.39-1.04c-0.26-0.23-0.65-0.35-1.16-0.35
		h-0.94V31.14z M282.74,24.29c0.37,0,0.69,0.14,0.97,0.42c0.28,0.28,0.42,0.6,0.42,0.98c0,0.37-0.13,0.69-0.4,0.96
		c-0.27,0.27-0.59,0.4-0.97,0.4s-0.7-0.14-0.97-0.41c-0.27-0.27-0.41-0.59-0.41-0.96c0-0.37,0.14-0.69,0.42-0.97
		C282.06,24.43,282.38,24.29,282.74,24.29z"/>
	<path class="st1" d="M290.7,26.46h0.82v4.68h3.71v1.13h-3.71v7.37c0,0.64,0.15,1.12,0.45,1.46c0.3,0.34,0.69,0.51,1.15,0.51
		c0.56,0,1.03-0.26,1.42-0.77c0.39-0.52,0.62-1.37,0.69-2.55h0.82c-0.05,1.53-0.4,2.66-1.04,3.4s-1.48,1.11-2.51,1.11
		c-0.95,0-1.69-0.26-2.22-0.78c-0.54-0.52-0.8-1.2-0.8-2.04v-7.71h-2v-0.86c0.91-0.16,1.6-0.54,2.08-1.14
		C290.26,29.36,290.65,28.09,290.7,26.46z"/>
	<path class="st1" d="M297.19,31.14h5.5v0.83h-0.51c-0.48,0-0.81,0.06-0.99,0.19s-0.26,0.31-0.26,0.54c0,0.11,0.02,0.21,0.07,0.32
		l3.2,6.9l2.38-5.72c0.17-0.41,0.26-0.81,0.26-1.2c0-0.3-0.12-0.54-0.36-0.71c-0.24-0.17-0.71-0.28-1.42-0.33v-0.83h4.78v0.83
		c-0.92,0.09-1.54,0.5-1.86,1.24l-4.25,9.88c-0.72,1.68-1.45,2.83-2.17,3.46c-0.74,0.64-1.52,0.96-2.37,0.96
		c-0.61,0-1.1-0.17-1.48-0.5s-0.56-0.75-0.56-1.24c0-0.37,0.11-0.67,0.34-0.91c0.23-0.24,0.51-0.36,0.86-0.36
		c0.31,0,0.57,0.1,0.78,0.31c0.21,0.2,0.32,0.45,0.32,0.74c0,0.09-0.02,0.21-0.05,0.37c-0.03,0.12-0.05,0.21-0.05,0.27
		c0,0.2,0.13,0.29,0.38,0.29c0.27,0,0.57-0.1,0.91-0.29s0.66-0.51,0.95-0.94c0.29-0.43,0.81-1.39,1.55-2.88l-4.36-9.34
		c-0.15-0.33-0.35-0.57-0.58-0.73c-0.23-0.16-0.57-0.27-1.02-0.33V31.14z"/>
	<path class="st1" d="M319.29,38.3c0.51,1.41,1.09,2.39,1.75,2.93c0.66,0.54,1.47,0.82,2.43,0.82c0.89,0,1.58-0.19,2.05-0.58
		s0.72-0.88,0.72-1.48c0-0.34-0.09-0.64-0.26-0.9c-0.18-0.26-0.42-0.45-0.73-0.58c-0.31-0.13-1.12-0.31-2.42-0.56
		c-1.24-0.25-2.11-0.5-2.6-0.77c-0.49-0.27-0.87-0.64-1.15-1.12c-0.27-0.47-0.41-0.99-0.41-1.54c0-0.84,0.28-1.61,0.85-2.29
		c0.73-0.87,1.75-1.31,3.06-1.31c1,0,1.92,0.31,2.77,0.94l0.81-0.86h0.5l0.32,4.09h-0.82c-0.36-1.16-0.85-2-1.46-2.51
		s-1.37-0.77-2.27-0.77c-0.78,0-1.39,0.19-1.83,0.57c-0.44,0.38-0.66,0.84-0.66,1.39c0,0.48,0.2,0.88,0.61,1.2
		c0.4,0.33,1.19,0.58,2.36,0.77c1.36,0.23,2.24,0.42,2.65,0.58c0.67,0.25,1.19,0.62,1.56,1.13c0.37,0.51,0.55,1.13,0.55,1.87
		c0,1.01-0.4,1.87-1.2,2.57s-1.81,1.05-3.04,1.05c-1.14,0-2.19-0.38-3.17-1.13l-0.9,1.03h-0.65l-0.25-4.57H319.29z"/>
	<path class="st1" d="M332.55,26.46h0.82v4.68h3.71v1.13h-3.71v7.37c0,0.64,0.15,1.12,0.45,1.46c0.3,0.34,0.69,0.51,1.15,0.51
		c0.56,0,1.03-0.26,1.42-0.77c0.39-0.52,0.62-1.37,0.69-2.55h0.82c-0.05,1.53-0.4,2.66-1.04,3.4s-1.48,1.11-2.51,1.11
		c-0.95,0-1.69-0.26-2.22-0.78c-0.54-0.52-0.8-1.2-0.8-2.04v-7.71h-2v-0.86c0.91-0.16,1.6-0.54,2.08-1.14
		C332.11,29.36,332.49,28.09,332.55,26.46z"/>
	<path class="st1" d="M343.22,30.93v7.61c0,0.93,0.23,1.65,0.7,2.16c0.47,0.51,1.07,0.76,1.82,0.76c0.91,0,1.69-0.37,2.33-1.11
		c0.64-0.74,0.96-1.67,0.96-2.78v-4.3c0-0.39-0.14-0.7-0.42-0.91c-0.28-0.22-0.82-0.34-1.62-0.36v-0.86l4.03-0.21v9.43
		c0,0.43,0.12,0.77,0.37,1s0.59,0.35,1.03,0.35h0.72v0.82l-3.86,0.08l-0.25-2.25c-0.69,0.81-1.38,1.42-2.07,1.83
		c-0.69,0.41-1.39,0.61-2.1,0.61c-1.04,0-1.91-0.35-2.61-1.04c-0.71-0.69-1.06-1.85-1.06-3.49v-4.99c0-0.44-0.18-0.78-0.53-1
		c-0.25-0.16-0.75-0.25-1.51-0.27v-0.86L343.22,30.93z"/>
	<path class="st1" d="M361.13,24.5l4.49-0.21V40c0,0.61,0.12,1.05,0.35,1.31s0.58,0.39,1.05,0.39h0.8v0.92h-3.92l-0.29-2.34
		c-0.47,0.83-1.01,1.46-1.64,1.88s-1.33,0.63-2.1,0.63c-1.31,0-2.42-0.55-3.34-1.64c-0.92-1.09-1.38-2.54-1.38-4.34
		c0-1.94,0.59-3.5,1.77-4.66c0.92-0.91,1.99-1.36,3.19-1.36c0.74,0,1.39,0.18,1.98,0.55c0.58,0.37,1.09,0.92,1.53,1.67v-6.48
		c0-0.34-0.13-0.62-0.4-0.82s-0.68-0.3-1.24-0.3h-0.82V24.5z M360.42,31.81c-0.88,0-1.58,0.36-2.1,1.09
		c-0.52,0.73-0.78,1.95-0.78,3.68c0,1.87,0.27,3.19,0.8,3.95c0.53,0.76,1.21,1.15,2.05,1.15c0.89,0,1.65-0.43,2.29-1.28
		c0.63-0.85,0.95-2.1,0.95-3.74c0-1.55-0.34-2.77-1.02-3.67C362.01,32.21,361.29,31.81,360.42,31.81z"/>
	<path class="st1" d="M368.78,31.14h5.5v0.83h-0.51c-0.48,0-0.81,0.06-0.99,0.19s-0.26,0.31-0.26,0.54c0,0.11,0.02,0.21,0.07,0.32
		l3.2,6.9l2.38-5.72c0.17-0.41,0.26-0.81,0.26-1.2c0-0.3-0.12-0.54-0.36-0.71c-0.24-0.17-0.71-0.28-1.42-0.33v-0.83h4.78v0.83
		c-0.92,0.09-1.54,0.5-1.86,1.24l-4.25,9.88c-0.72,1.68-1.45,2.83-2.17,3.46c-0.74,0.64-1.52,0.96-2.37,0.96
		c-0.61,0-1.11-0.17-1.48-0.5c-0.37-0.33-0.56-0.75-0.56-1.24c0-0.37,0.12-0.67,0.34-0.91c0.23-0.24,0.51-0.36,0.86-0.36
		c0.31,0,0.57,0.1,0.79,0.31c0.21,0.2,0.32,0.45,0.32,0.74c0,0.09-0.02,0.21-0.05,0.37c-0.03,0.12-0.05,0.21-0.05,0.27
		c0,0.2,0.13,0.29,0.38,0.29c0.27,0,0.57-0.1,0.91-0.29c0.34-0.2,0.66-0.51,0.95-0.94c0.29-0.43,0.81-1.39,1.55-2.88l-4.36-9.34
		c-0.16-0.33-0.35-0.57-0.58-0.73s-0.57-0.27-1.02-0.33V31.14z"/>
</g>
<line class="st2" x1="31.93" y1="55.23" x2="524.04" y2="55.23"/>
</svg>
