<?xml version="1.0" encoding="utf-8"?>
<!-- Generator: Adobe Illustrator 24.0.1, SVG Export Plug-In . SVG Version: 6.00 Build 0)  -->
<svg version="1.1" id="Layer_1" xmlns="http://www.w3.org/2000/svg" xmlns:xlink="http://www.w3.org/1999/xlink" x="0px" y="0px"
	 viewBox="0 0 560 171.52" style="enable-background:new 0 0 560 171.52;" xml:space="preserve">
<style type="text/css">
	.st0{enable-background:new    ;}
	.st1{fill:#808080;}
</style>
<g class="st0">
	<path class="st1" d="M64.3,58.01c1.92,0,3.27,0.81,4.26,1.74l-1.23,1.59c-0.87-0.75-1.77-1.29-2.94-1.29
		c-2.64,0-4.56,2.28-4.56,5.64c0,3.33,1.83,5.59,4.5,5.59c1.38,0,2.55-0.69,3.42-1.47l1.11,1.62c-1.32,1.17-3,1.89-4.74,1.89
		c-3.87,0-6.85-2.79-6.85-7.63C57.27,60.81,60.54,58.01,64.3,58.01z"/>
	<path class="st1" d="M77.09,58.01c3.57,0,6.76,2.79,6.76,7.69c0,4.83-3.18,7.63-6.76,7.63c-3.57,0-6.76-2.79-6.76-7.63
		C70.33,60.81,73.51,58.01,77.09,58.01z M77.09,71.29c2.52,0,4.2-2.25,4.2-5.59c0-3.36-1.68-5.64-4.2-5.64
		c-2.49,0-4.2,2.28-4.2,5.64C72.88,69.04,74.6,71.29,77.09,71.29z"/>
	<path class="st1" d="M87.69,58.38h2.04l0.21,2.1h0.09c1.38-1.38,2.88-2.46,4.9-2.46c3.06,0,4.44,1.98,4.44,5.71v9.25h-2.46v-8.92
		c0-2.73-0.84-3.9-2.76-3.9c-1.5,0-2.52,0.78-3.99,2.25v10.57h-2.46V58.38z"/>
	<path class="st1" d="M109.4,58.01c1.68,0,2.79,0.63,4.08,1.68l-0.12-2.49v-5.62h2.49v21.38h-2.04l-0.21-1.71h-0.09
		c-1.14,1.11-2.7,2.07-4.41,2.07c-3.66,0-6.04-2.76-6.04-7.63C103.06,60.96,106.06,58.01,109.4,58.01z M109.64,71.26
		c1.35,0,2.52-0.66,3.72-2.01v-7.63c-1.23-1.11-2.34-1.53-3.54-1.53c-2.34,0-4.2,2.25-4.2,5.59
		C105.61,69.16,107.08,71.26,109.64,71.26z"/>
	<path class="st1" d="M120.56,58.38h2.49v8.92c0,2.73,0.81,3.9,2.73,3.9c1.5,0,2.55-0.75,3.93-2.46V58.38h2.46v14.59h-2.04
		l-0.21-2.28h-0.09c-1.35,1.59-2.79,2.64-4.8,2.64c-3.09,0-4.47-1.98-4.47-5.71V58.38z"/>
	<path class="st1" d="M143.06,58.01c1.92,0,3.27,0.81,4.26,1.74l-1.23,1.59c-0.87-0.75-1.77-1.29-2.94-1.29
		c-2.64,0-4.56,2.28-4.56,5.64c0,3.33,1.83,5.59,4.5,5.59c1.38,0,2.55-0.69,3.42-1.47l1.11,1.62c-1.32,1.17-3,1.89-4.74,1.89
		c-3.87,0-6.85-2.79-6.85-7.63C136.03,60.81,139.3,58.01,143.06,58.01z"/>
	<path class="st1" d="M151.22,60.39h-2.16v-1.86l2.28-0.15l0.3-4.08h2.07v4.08h3.93v2.01h-3.93v8.11c0,1.8,0.57,2.82,2.25,2.82
		c0.51,0,1.17-0.21,1.65-0.39l0.48,1.86c-0.81,0.27-1.8,0.54-2.7,0.54c-3.12,0-4.17-1.98-4.17-4.86V60.39z"/>
	<path class="st1" d="M166.12,58.01c3.72,0,5.83,2.67,5.83,6.85c0,0.51-0.03,0.99-0.09,1.35H162c0.18,3.15,2.07,5.14,4.87,5.14
		c1.38,0,2.55-0.45,3.63-1.14l0.87,1.62c-1.26,0.81-2.82,1.5-4.8,1.5c-3.9,0-7-2.85-7-7.63C159.57,60.93,162.78,58.01,166.12,58.01z
		 M169.78,64.59c0-2.97-1.32-4.62-3.6-4.62c-2.04,0-3.9,1.68-4.2,4.62H169.78z"/>
	<path class="st1" d="M180.83,58.01c1.68,0,2.79,0.63,4.08,1.68l-0.12-2.49v-5.62h2.49v21.38h-2.04l-0.21-1.71h-0.09
		c-1.14,1.11-2.7,2.07-4.41,2.07c-3.66,0-6.04-2.76-6.04-7.63C174.49,60.96,177.49,58.01,180.83,58.01z M181.07,71.26
		c1.35,0,2.52-0.66,3.72-2.01v-7.63c-1.23-1.11-2.34-1.53-3.54-1.53c-2.34,0-4.2,2.25-4.2,5.59
		C177.04,69.16,178.52,71.26,181.07,71.26z"/>
	<path class="st1" d="M206.53,63.72c0-1.86-0.63-3.66-3-3.66c-1.71,0-3.21,0.78-4.35,1.56l-0.99-1.71c1.35-0.87,3.39-1.89,5.74-1.89
		c3.57,0,5.07,2.37,5.07,6.01v8.95h-2.04l-0.21-1.74h-0.06c-1.41,1.14-3.03,2.1-4.83,2.1c-2.46,0-4.29-1.53-4.29-4.14
		C197.55,66,200.31,64.41,206.53,63.72z M202.54,71.35c1.41,0,2.58-0.69,3.99-1.95v-4.05c-4.9,0.6-6.55,1.8-6.55,3.66
		C199.98,70.66,201.09,71.35,202.54,71.35z"/>
	<path class="st1" d="M213.65,58.38h2.04l0.21,2.1h0.09c1.38-1.38,2.88-2.46,4.89-2.46c3.06,0,4.44,1.98,4.44,5.71v9.25h-2.46v-8.92
		c0-2.73-0.84-3.9-2.76-3.9c-1.5,0-2.52,0.78-3.99,2.25v10.57h-2.46V58.38z"/>
	<path class="st1" d="M244.39,63.72c0-1.86-0.63-3.66-3-3.66c-1.71,0-3.21,0.78-4.35,1.56l-0.99-1.71c1.35-0.87,3.39-1.89,5.74-1.89
		c3.57,0,5.08,2.37,5.08,6.01v8.95h-2.04l-0.21-1.74h-0.06c-1.41,1.14-3.03,2.1-4.83,2.1c-2.46,0-4.29-1.53-4.29-4.14
		C235.41,66,238.18,64.41,244.39,63.72z M240.4,71.35c1.41,0,2.58-0.69,3.99-1.95v-4.05c-4.89,0.6-6.55,1.8-6.55,3.66
		C237.85,70.66,238.96,71.35,240.4,71.35z"/>
	<path class="st1" d="M257.45,58.01c1.92,0,3.27,0.81,4.26,1.74l-1.23,1.59c-0.87-0.75-1.77-1.29-2.94-1.29
		c-2.64,0-4.56,2.28-4.56,5.64c0,3.33,1.83,5.59,4.5,5.59c1.38,0,2.55-0.69,3.42-1.47l1.11,1.62c-1.32,1.17-3,1.89-4.74,1.89
		c-3.87,0-6.85-2.79-6.85-7.63C250.43,60.81,253.7,58.01,257.45,58.01z"/>
	<path class="st1" d="M270.52,58.01c1.92,0,3.27,0.81,4.26,1.74l-1.23,1.59c-0.87-0.75-1.77-1.29-2.94-1.29
		c-2.64,0-4.56,2.28-4.56,5.64c0,3.33,1.83,5.59,4.5,5.59c1.38,0,2.55-0.69,3.42-1.47l1.11,1.62c-1.32,1.17-3,1.89-4.74,1.89
		c-3.87,0-6.85-2.79-6.85-7.63C263.49,60.81,266.76,58.01,270.52,58.01z"/>
	<path class="st1" d="M283.1,58.01c3.72,0,5.83,2.67,5.83,6.85c0,0.51-0.03,0.99-0.09,1.35h-9.85c0.18,3.15,2.07,5.14,4.86,5.14
		c1.38,0,2.55-0.45,3.63-1.14l0.87,1.62c-1.26,0.81-2.82,1.5-4.8,1.5c-3.9,0-7-2.85-7-7.63C276.55,60.93,279.76,58.01,283.1,58.01z
		 M286.76,64.59c0-2.97-1.32-4.62-3.6-4.62c-2.04,0-3.9,1.68-4.2,4.62H286.76z"/>
	<path class="st1" d="M292.13,69.67c1.26,1.02,2.55,1.74,4.29,1.74c1.92,0,2.88-1.02,2.88-2.28c0-1.5-1.74-2.16-3.33-2.76
		c-2.07-0.75-4.35-1.74-4.35-4.2c0-2.34,1.86-4.14,5.01-4.14c1.83,0,3.42,0.75,4.53,1.65L300,61.23c-0.99-0.75-2.04-1.29-3.33-1.29
		c-1.83,0-2.67,0.99-2.67,2.1c0,1.35,1.59,1.89,3.24,2.52c2.1,0.78,4.44,1.65,4.44,4.41c0,2.37-1.89,4.35-5.35,4.35
		c-2.07,0-4.05-0.87-5.43-2.01L292.13,69.67z"/>
	<path class="st1" d="M304.71,69.67c1.26,1.02,2.55,1.74,4.29,1.74c1.92,0,2.88-1.02,2.88-2.28c0-1.5-1.74-2.16-3.33-2.76
		c-2.07-0.75-4.35-1.74-4.35-4.2c0-2.34,1.86-4.14,5.01-4.14c1.83,0,3.42,0.75,4.54,1.65l-1.17,1.56c-0.99-0.75-2.04-1.29-3.33-1.29
		c-1.83,0-2.67,0.99-2.67,2.1c0,1.35,1.59,1.89,3.24,2.52c2.1,0.78,4.44,1.65,4.44,4.41c0,2.37-1.89,4.35-5.34,4.35
		c-2.07,0-4.05-0.87-5.44-2.01L304.71,69.67z"/>
	<path class="st1" d="M317.23,53.78c0-0.96,0.75-1.59,1.71-1.59s1.71,0.63,1.71,1.59c0,0.93-0.75,1.59-1.71,1.59
		S317.23,54.71,317.23,53.78z M317.68,58.38h2.46v14.59h-2.46V58.38z"/>
	<path class="st1" d="M325.07,51.59h2.46v5.83l-0.06,2.64c1.32-1.17,2.94-2.04,4.56-2.04c3.78,0,5.79,2.91,5.79,7.42
		c0,4.98-2.97,7.9-6.31,7.9c-1.35,0-2.88-0.66-4.17-1.8h-0.09l-0.21,1.44h-1.98V51.59z M331.11,71.26c2.4,0,4.17-2.19,4.17-5.8
		c0-3.21-1.08-5.38-3.84-5.38c-1.23,0-2.52,0.69-3.9,1.98v7.66C328.82,70.84,330.15,71.26,331.11,71.26z"/>
	<path class="st1" d="M341.28,53.78c0-0.96,0.75-1.59,1.71-1.59s1.71,0.63,1.71,1.59c0,0.93-0.75,1.59-1.71,1.59
		S341.28,54.71,341.28,53.78z M341.73,58.38h2.46v14.59h-2.46V58.38z"/>
	<path class="st1" d="M349.12,51.59h2.46v18.62c0,0.78,0.33,1.08,0.69,1.08c0.15,0,0.27,0,0.54-0.06l0.33,1.86
		c-0.33,0.15-0.75,0.24-1.41,0.24c-1.86,0-2.61-1.17-2.61-3.3V51.59z"/>
	<path class="st1" d="M356.33,53.78c0-0.96,0.75-1.59,1.71-1.59s1.71,0.63,1.71,1.59c0,0.93-0.75,1.59-1.71,1.59
		S356.33,54.71,356.33,53.78z M356.78,58.38h2.46v14.59h-2.46V58.38z"/>
	<path class="st1" d="M364.58,60.39h-2.16v-1.86l2.28-0.15l0.3-4.08h2.07v4.08h3.93v2.01h-3.93v8.11c0,1.8,0.57,2.82,2.25,2.82
		c0.51,0,1.17-0.21,1.65-0.39l0.48,1.86c-0.81,0.27-1.8,0.54-2.7,0.54c-3.12,0-4.17-1.98-4.17-4.86V60.39z"/>
	<path class="st1" d="M374.43,77.2c1.65,0,2.7-1.32,3.3-3.12l0.33-1.08l-5.86-14.62h2.55l2.97,8.08c0.45,1.26,0.96,2.76,1.41,4.11
		h0.12c0.42-1.32,0.84-2.82,1.23-4.11l2.61-8.08h2.4l-5.5,15.79c-1.02,2.88-2.52,5.08-5.47,5.08c-0.66,0-1.23-0.12-1.71-0.3
		l0.48-1.95C373.62,77.08,374.07,77.2,374.43,77.2z"/>
	<path class="st1" d="M402.66,63.72c0-1.86-0.63-3.66-3-3.66c-1.71,0-3.21,0.78-4.35,1.56l-0.99-1.71c1.35-0.87,3.39-1.89,5.74-1.89
		c3.57,0,5.08,2.37,5.08,6.01v8.95h-2.04l-0.21-1.74h-0.06c-1.41,1.14-3.03,2.1-4.83,2.1c-2.46,0-4.29-1.53-4.29-4.14
		C393.68,66,396.44,64.41,402.66,63.72z M398.66,71.35c1.41,0,2.58-0.69,3.99-1.95v-4.05c-4.89,0.6-6.55,1.8-6.55,3.66
		C396.11,70.66,397.22,71.35,398.66,71.35z"/>
	<path class="st1" d="M409.77,58.38h2.04l0.21,2.1h0.09c1.38-1.38,2.88-2.46,4.89-2.46c3.06,0,4.44,1.98,4.44,5.71v9.25h-2.46v-8.92
		c0-2.73-0.84-3.9-2.76-3.9c-1.5,0-2.52,0.78-3.99,2.25v10.57h-2.46V58.38z"/>
	<path class="st1" d="M434.46,63.72c0-1.86-0.63-3.66-3-3.66c-1.71,0-3.21,0.78-4.35,1.56l-0.99-1.71c1.35-0.87,3.39-1.89,5.74-1.89
		c3.57,0,5.07,2.37,5.07,6.01v8.95h-2.04l-0.21-1.74h-0.06c-1.41,1.14-3.03,2.1-4.83,2.1c-2.46,0-4.29-1.53-4.29-4.14
		C425.48,66,428.24,64.41,434.46,63.72z M430.46,71.35c1.41,0,2.58-0.69,3.99-1.95v-4.05c-4.9,0.6-6.55,1.8-6.55,3.66
		C427.91,70.66,429.02,71.35,430.46,71.35z"/>
	<path class="st1" d="M441.57,51.59h2.46v18.62c0,0.78,0.33,1.08,0.69,1.08c0.15,0,0.27,0,0.54-0.06l0.33,1.86
		c-0.33,0.15-0.75,0.24-1.41,0.24c-1.86,0-2.61-1.17-2.61-3.3V51.59z"/>
	<path class="st1" d="M449.35,77.2c1.65,0,2.7-1.32,3.3-3.12l0.33-1.08l-5.86-14.62h2.55l2.97,8.08c0.45,1.26,0.96,2.76,1.41,4.11
		h0.12c0.42-1.32,0.84-2.82,1.23-4.11l2.61-8.08h2.4l-5.5,15.79c-1.02,2.88-2.52,5.08-5.47,5.08c-0.66,0-1.23-0.12-1.71-0.3
		l0.48-1.95C448.54,77.08,448.99,77.2,449.35,77.2z"/>
	<path class="st1" d="M462.86,69.67c1.26,1.02,2.55,1.74,4.29,1.74c1.92,0,2.88-1.02,2.88-2.28c0-1.5-1.74-2.16-3.33-2.76
		c-2.07-0.75-4.35-1.74-4.35-4.2c0-2.34,1.86-4.14,5.01-4.14c1.83,0,3.42,0.75,4.54,1.65l-1.17,1.56c-0.99-0.75-2.04-1.29-3.33-1.29
		c-1.83,0-2.67,0.99-2.67,2.1c0,1.35,1.59,1.89,3.24,2.52c2.1,0.78,4.44,1.65,4.44,4.41c0,2.37-1.89,4.35-5.34,4.35
		c-2.07,0-4.05-0.87-5.44-2.01L462.86,69.67z"/>
	<path class="st1" d="M475.38,53.78c0-0.96,0.75-1.59,1.71-1.59s1.71,0.63,1.71,1.59c0,0.93-0.75,1.59-1.71,1.59
		S475.38,54.71,475.38,53.78z M475.83,58.38h2.46v14.59h-2.46V58.38z"/>
	<path class="st1" d="M482.83,69.67c1.26,1.02,2.55,1.74,4.29,1.74c1.92,0,2.88-1.02,2.88-2.28c0-1.5-1.74-2.16-3.33-2.76
		c-2.07-0.75-4.35-1.74-4.35-4.2c0-2.34,1.86-4.14,5.01-4.14c1.83,0,3.42,0.75,4.54,1.65l-1.17,1.56c-0.99-0.75-2.04-1.29-3.33-1.29
		c-1.83,0-2.67,0.99-2.67,2.1c0,1.35,1.59,1.89,3.24,2.52c2.1,0.78,4.44,1.65,4.44,4.41c0,2.37-1.89,4.35-5.34,4.35
		c-2.07,0-4.05-0.87-5.44-2.01L482.83,69.67z"/>
</g>
<g class="st0">
	<path class="st1" d="M80,94.04c3.57,0,6.76,2.79,6.76,7.69c0,4.83-3.18,7.63-6.76,7.63c-3.57,0-6.76-2.79-6.76-7.63
		C73.24,96.84,76.42,94.04,80,94.04z M80,107.32c2.52,0,4.2-2.25,4.2-5.59c0-3.36-1.68-5.64-4.2-5.64c-2.49,0-4.2,2.28-4.2,5.64
		C75.79,105.07,77.5,107.32,80,107.32z"/>
	<path class="st1" d="M97.17,89.63c-0.54-0.24-1.11-0.36-1.65-0.36c-1.38,0-2.04,0.96-2.04,2.82v2.31h3.09v2.01h-3.09V109h-2.46
		V96.42h-1.98v-1.86l1.98-0.15v-2.31c0-2.97,1.35-4.83,4.26-4.83c0.9,0,1.77,0.21,2.43,0.48L97.17,89.63z"/>
	<path class="st1" d="M105.85,96.42h-2.16v-1.86l2.28-0.15l0.3-4.08h2.07v4.08h3.93v2.01h-3.93v8.11c0,1.8,0.57,2.82,2.25,2.82
		c0.51,0,1.17-0.21,1.65-0.39l0.48,1.86c-0.81,0.27-1.8,0.54-2.7,0.54c-3.12,0-4.17-1.98-4.17-4.86V96.42z"/>
	<path class="st1" d="M115.58,87.62h2.46v5.83l-0.09,3c1.38-1.32,2.85-2.4,4.87-2.4c3.06,0,4.44,1.98,4.44,5.71V109h-2.46v-8.92
		c0-2.73-0.84-3.9-2.76-3.9c-1.5,0-2.52,0.78-3.99,2.25V109h-2.46V87.62z"/>
	<path class="st1" d="M137.38,94.04c3.72,0,5.83,2.67,5.83,6.85c0,0.51-0.03,0.99-0.09,1.35h-9.85c0.18,3.15,2.07,5.14,4.86,5.14
		c1.38,0,2.55-0.45,3.63-1.14l0.87,1.62c-1.26,0.81-2.82,1.5-4.8,1.5c-3.9,0-7-2.85-7-7.63C130.83,96.96,134.04,94.04,137.38,94.04z
		 M141.04,100.62c0-2.97-1.32-4.62-3.6-4.62c-2.04,0-3.9,1.68-4.2,4.62H141.04z"/>
	<path class="st1" d="M153.29,96.42h-2.16v-1.86l2.28-0.15l0.3-4.08h2.07v4.08h3.93v2.01h-3.93v8.11c0,1.8,0.57,2.82,2.25,2.82
		c0.51,0,1.17-0.21,1.65-0.39l0.48,1.86c-0.81,0.27-1.8,0.54-2.7,0.54c-3.12,0-4.17-1.98-4.17-4.86V96.42z"/>
	<path class="st1" d="M168.39,94.04c3.57,0,6.76,2.79,6.76,7.69c0,4.83-3.18,7.63-6.76,7.63c-3.57,0-6.76-2.79-6.76-7.63
		C161.64,96.84,164.82,94.04,168.39,94.04z M168.39,107.32c2.52,0,4.2-2.25,4.2-5.59c0-3.36-1.68-5.64-4.2-5.64
		c-2.49,0-4.2,2.28-4.2,5.64C164.19,105.07,165.9,107.32,168.39,107.32z"/>
	<path class="st1" d="M181.45,110.23v4.92h-2.46V94.41h2.04l0.21,1.68h0.09c1.32-1.11,2.94-2.04,4.65-2.04
		c3.75,0,5.77,2.91,5.77,7.45c0,4.96-2.97,7.87-6.31,7.87c-1.35,0-2.7-0.63-4.05-1.68L181.45,110.23z M185.03,107.29
		c2.4,0,4.17-2.19,4.17-5.8c0-3.21-1.08-5.38-3.84-5.38c-1.23,0-2.46,0.69-3.9,1.98v7.66C182.77,106.87,184.07,107.29,185.03,107.29
		z"/>
	<path class="st1" d="M201.63,106.96h4.38V92.84h-3.48v-1.59c1.74-0.3,3-0.78,4.05-1.41h1.89v17.12h3.96V109h-10.81V106.96z"/>
	<path class="st1" d="M215.59,112.66c1.68-0.75,2.7-2.04,2.7-3.66c-0.09,0.03-0.21,0.03-0.3,0.03c-0.96,0-1.77-0.6-1.77-1.71
		c0-1.08,0.84-1.74,1.83-1.74c1.29,0,2.07,1.11,2.07,2.91c0,2.58-1.5,4.59-3.93,5.62L215.59,112.66z"/>
	<path class="st1" d="M222.98,99.36c0-6.43,2.31-9.88,6.16-9.88c3.81,0,6.13,3.45,6.13,9.88c0,6.43-2.31,10-6.13,10
		C225.29,109.36,222.98,105.79,222.98,99.36z M232.86,99.36c0-5.62-1.5-7.9-3.72-7.9c-2.25,0-3.75,2.28-3.75,7.9
		c0,5.62,1.5,8.02,3.75,8.02C231.36,107.38,232.86,104.98,232.86,99.36z"/>
	<path class="st1" d="M237.9,99.36c0-6.43,2.31-9.88,6.16-9.88c3.81,0,6.13,3.45,6.13,9.88c0,6.43-2.31,10-6.13,10
		C240.21,109.36,237.9,105.79,237.9,99.36z M247.78,99.36c0-5.62-1.5-7.9-3.72-7.9c-2.25,0-3.75,2.28-3.75,7.9
		c0,5.62,1.5,8.02,3.75,8.02C246.28,107.38,247.78,104.98,247.78,99.36z"/>
	<path class="st1" d="M252.82,99.36c0-6.43,2.31-9.88,6.16-9.88c3.81,0,6.13,3.45,6.13,9.88c0,6.43-2.31,10-6.13,10
		C255.14,109.36,252.82,105.79,252.82,99.36z M262.7,99.36c0-5.62-1.5-7.9-3.72-7.9c-2.25,0-3.75,2.28-3.75,7.9
		c0,5.62,1.5,8.02,3.75,8.02C261.2,107.38,262.7,104.98,262.7,99.36z"/>
	<path class="st1" d="M267.84,112.66c1.68-0.75,2.7-2.04,2.7-3.66c-0.09,0.03-0.21,0.03-0.3,0.03c-0.96,0-1.77-0.6-1.77-1.71
		c0-1.08,0.84-1.74,1.83-1.74c1.29,0,2.07,1.11,2.07,2.91c0,2.58-1.5,4.59-3.93,5.62L267.84,112.66z"/>
	<path class="st1" d="M275.22,99.36c0-6.43,2.31-9.88,6.16-9.88c3.81,0,6.13,3.45,6.13,9.88c0,6.43-2.31,10-6.13,10
		C277.54,109.36,275.22,105.79,275.22,99.36z M285.1,99.36c0-5.62-1.5-7.9-3.72-7.9c-2.25,0-3.75,2.28-3.75,7.9
		c0,5.62,1.5,8.02,3.75,8.02C283.6,107.38,285.1,104.98,285.1,99.36z"/>
	<path class="st1" d="M290.15,99.36c0-6.43,2.31-9.88,6.16-9.88c3.81,0,6.13,3.45,6.13,9.88c0,6.43-2.31,10-6.13,10
		C292.46,109.36,290.15,105.79,290.15,99.36z M300.03,99.36c0-5.62-1.5-7.9-3.72-7.9c-2.25,0-3.75,2.28-3.75,7.9
		c0,5.62,1.5,8.02,3.75,8.02C298.52,107.38,300.03,104.98,300.03,99.36z"/>
	<path class="st1" d="M305.07,99.36c0-6.43,2.31-9.88,6.16-9.88c3.81,0,6.13,3.45,6.13,9.88c0,6.43-2.31,10-6.13,10
		C307.38,109.36,305.07,105.79,305.07,99.36z M314.95,99.36c0-5.62-1.5-7.9-3.72-7.9c-2.25,0-3.75,2.28-3.75,7.9
		c0,5.62,1.5,8.02,3.75,8.02C313.45,107.38,314.95,104.98,314.95,99.36z"/>
	<path class="st1" d="M327.2,87.62h2.46v5.83l-0.09,3c1.38-1.32,2.85-2.4,4.87-2.4c3.06,0,4.44,1.98,4.44,5.71V109h-2.46v-8.92
		c0-2.73-0.84-3.9-2.76-3.9c-1.5,0-2.52,0.78-3.99,2.25V109h-2.46V87.62z"/>
	<path class="st1" d="M349.21,94.04c3.57,0,6.76,2.79,6.76,7.69c0,4.83-3.18,7.63-6.76,7.63c-3.57,0-6.76-2.79-6.76-7.63
		C342.45,96.84,345.63,94.04,349.21,94.04z M349.21,107.32c2.52,0,4.2-2.25,4.2-5.59c0-3.36-1.68-5.64-4.2-5.64
		c-2.49,0-4.2,2.28-4.2,5.64C345,105.07,346.72,107.32,349.21,107.32z"/>
	<path class="st1" d="M359.81,94.41h2.04l0.21,2.1h0.09c1.26-1.38,2.79-2.46,4.53-2.46c2.22,0,3.42,1.05,4.02,2.79
		c1.53-1.65,3.03-2.79,4.8-2.79c3,0,4.44,1.98,4.44,5.71V109h-2.46v-8.92c0-2.73-0.87-3.9-2.7-3.9c-1.14,0-2.31,0.75-3.66,2.25V109
		h-2.46v-8.92c0-2.73-0.87-3.9-2.73-3.9c-1.08,0-2.31,0.75-3.66,2.25V109h-2.46V94.41z"/>
	<path class="st1" d="M390.16,94.04c3.72,0,5.83,2.67,5.83,6.85c0,0.51-0.03,0.99-0.09,1.35h-9.85c0.18,3.15,2.07,5.14,4.87,5.14
		c1.38,0,2.55-0.45,3.63-1.14l0.87,1.62c-1.26,0.81-2.82,1.5-4.8,1.5c-3.9,0-7-2.85-7-7.63C383.62,96.96,386.83,94.04,390.16,94.04z
		 M393.83,100.62c0-2.97-1.32-4.62-3.6-4.62c-2.04,0-3.9,1.68-4.21,4.62H393.83z"/>
	<path class="st1" d="M408.12,110.23v4.92h-2.46V94.41h2.04l0.21,1.68H408c1.32-1.11,2.94-2.04,4.65-2.04
		c3.75,0,5.77,2.91,5.77,7.45c0,4.96-2.97,7.87-6.31,7.87c-1.35,0-2.7-0.63-4.05-1.68L408.12,110.23z M411.69,107.29
		c2.4,0,4.17-2.19,4.17-5.8c0-3.21-1.08-5.38-3.84-5.38c-1.23,0-2.46,0.69-3.9,1.98v7.66C409.44,106.87,410.73,107.29,411.69,107.29
		z"/>
	<path class="st1" d="M430.16,99.75c0-1.86-0.63-3.66-3-3.66c-1.71,0-3.21,0.78-4.35,1.56l-0.99-1.71c1.35-0.87,3.39-1.89,5.74-1.89
		c3.57,0,5.07,2.37,5.07,6.01V109h-2.04l-0.21-1.74h-0.06c-1.41,1.14-3.03,2.1-4.83,2.1c-2.46,0-4.29-1.53-4.29-4.14
		C421.18,102.03,423.94,100.44,430.16,99.75z M426.16,107.38c1.41,0,2.58-0.69,3.99-1.95v-4.05c-4.9,0.6-6.55,1.8-6.55,3.66
		C423.61,106.69,424.72,107.38,426.16,107.38z"/>
	<path class="st1" d="M438.29,108.49v-0.12c-0.72-0.45-1.29-1.23-1.29-2.37c0-1.23,0.84-2.19,1.59-2.7v-0.12
		c-0.96-0.78-1.89-2.19-1.89-3.93c0-3.18,2.52-5.2,5.5-5.2c0.81,0,1.53,0.15,2.07,0.36h5.08v1.89h-3c0.69,0.66,1.2,1.77,1.2,3
		c0,3.12-2.37,5.07-5.35,5.07c-0.72,0-1.53-0.18-2.19-0.51c-0.51,0.45-0.93,0.93-0.93,1.74c0,0.93,0.6,1.59,2.58,1.59h2.82
		c3.39,0,5.1,1.05,5.1,3.48c0,2.7-2.85,5.04-7.39,5.04c-3.57,0-6.04-1.41-6.04-3.93C436.16,110.56,436.97,109.39,438.29,108.49z
		 M442.56,114.01c2.79,0,4.62-1.44,4.62-2.97c0-1.35-1.05-1.8-2.94-1.8h-2.52c-0.57,0-1.26-0.06-1.89-0.24
		c-1.05,0.75-1.5,1.62-1.5,2.46C438.33,113.02,439.92,114.01,442.56,114.01z M445.29,99.24c0-2.13-1.38-3.39-3.09-3.39
		c-1.71,0-3.09,1.26-3.09,3.39c0,2.13,1.41,3.48,3.09,3.48S445.29,101.37,445.29,99.24z"/>
	<path class="st1" d="M457.45,94.04c3.72,0,5.83,2.67,5.83,6.85c0,0.51-0.03,0.99-0.09,1.35h-9.85c0.18,3.15,2.07,5.14,4.87,5.14
		c1.38,0,2.55-0.45,3.63-1.14l0.87,1.62c-1.26,0.81-2.82,1.5-4.8,1.5c-3.9,0-7-2.85-7-7.63C450.91,96.96,454.12,94.04,457.45,94.04z
		 M461.12,100.62c0-2.97-1.32-4.62-3.6-4.62c-2.04,0-3.9,1.68-4.21,4.62H461.12z"/>
	<path class="st1" d="M466.49,105.7c1.26,1.02,2.55,1.74,4.29,1.74c1.92,0,2.88-1.02,2.88-2.28c0-1.5-1.74-2.16-3.33-2.76
		c-2.07-0.75-4.35-1.74-4.35-4.2c0-2.34,1.86-4.14,5.01-4.14c1.83,0,3.42,0.75,4.54,1.65l-1.17,1.56c-0.99-0.75-2.04-1.29-3.33-1.29
		c-1.83,0-2.67,0.99-2.67,2.1c0,1.35,1.59,1.89,3.24,2.52c2.1,0.78,4.44,1.65,4.44,4.41c0,2.37-1.89,4.35-5.34,4.35
		c-2.07,0-4.05-0.87-5.44-2.01L466.49,105.7z"/>
	<path class="st1" d="M480.75,105.58c0.96,0,1.77,0.78,1.77,1.92c0,1.08-0.81,1.86-1.77,1.86c-0.99,0-1.8-0.78-1.8-1.86
		C478.95,106.36,479.76,105.58,480.75,105.58z"/>
</g>
</svg>
