<?xml version="1.0" encoding="utf-8"?>
<!-- Generator: Adobe Illustrator 24.0.1, SVG Export Plug-In . SVG Version: 6.00 Build 0)  -->
<svg version="1.1" id="Layer_1" xmlns="http://www.w3.org/2000/svg" xmlns:xlink="http://www.w3.org/1999/xlink" x="0px" y="0px"
	 viewBox="0 0 560 377.06" style="enable-background:new 0 0 560 377.06;" xml:space="preserve">
<style type="text/css">
	.st0{fill:#575757;}
	.st1{fill:#7A7A7A;}
	.st2{fill:#ABABAB;}
	.st3{fill:#3D3D3D;}
	.st4{clip-path:url(#SVGID_2_);fill:#C8C8C8;}
	.st5{fill:#D6D6D6;}
</style>
<rect x="95.37" y="15.02" class="st0" width="361.65" height="204.11"/>
<g>
	<path class="st1" d="M159.4,52.5h6.49v28.65l-6.49-0.06V52.5z"/>
	<path class="st1" d="M180.74,58.82c5.48,0,10.57,4.17,10.57,11.4s-5.09,11.4-10.57,11.4c-5.53,0-10.61-4.17-10.61-11.4
		S175.21,58.82,180.74,58.82z M180.74,76.41c2.63,0,3.99-2.41,3.99-6.18s-1.36-6.18-3.99-6.18c-2.68,0-3.99,2.41-3.99,6.18
		S178.06,76.41,180.74,76.41z"/>
	<path class="st1" d="M193.1,59.34h6.4l2.11,10.09c0.35,2.15,0.61,4.25,0.96,6.45h0.18c0.4-2.19,0.75-4.39,1.27-6.45l2.41-10.09H212
		l2.46,10.09c0.53,2.15,0.92,4.25,1.36,6.45H216c0.4-2.19,0.61-4.3,1.01-6.45l2.06-10.09h5.96l-5.22,21.75h-7.54l-1.97-8.68
		c-0.44-2.02-0.79-4.04-1.18-6.36h-0.18c-0.4,2.32-0.7,4.34-1.1,6.36l-1.93,8.68h-7.37L193.1,59.34z"/>
	<path class="st1" d="M248.1,58.82c2.68,0,4.91,1.01,6.36,2.5l-2.94,3.99c-1.05-0.88-2.02-1.27-3.03-1.27
		c-3.11,0-5.09,2.41-5.09,6.18s2.06,6.18,4.87,6.18c1.58,0,2.85-0.75,3.9-1.58l2.59,4.08c-2.11,1.84-4.87,2.72-7.24,2.72
		c-6.05,0-10.75-4.17-10.75-11.4S242.09,58.82,248.1,58.82z"/>
	<path class="st1" d="M266.65,58.82c5.48,0,10.57,4.17,10.57,11.4s-5.09,11.4-10.57,11.4c-5.53,0-10.61-4.17-10.61-11.4
		S261.12,58.82,266.65,58.82z M266.65,76.41c2.63,0,3.99-2.41,3.99-6.18s-1.36-6.18-3.99-6.18c-2.68,0-3.99,2.41-3.99,6.18
		S263.97,76.41,266.65,76.41z"/>
	<path class="st1" d="M281.65,59.34h5.26l0.44,2.76h0.18c1.84-1.75,4.04-3.29,6.97-3.29c4.74,0,6.75,3.33,6.75,8.77V81.1h-6.45
		V68.42c0-3.16-0.83-4.12-2.68-4.12c-1.62,0-2.63,0.75-4.04,2.11V81.1h-6.45V59.34H281.65z"/>
	<path class="st1" d="M307.61,64.39h-2.98v-4.78l3.33-0.26l0.75-5.79h5.35v5.79h5.22v5.04h-5.22v8.73c0,2.46,1.1,3.46,2.81,3.46
		c0.7,0,1.49-0.22,2.06-0.44l1.01,4.69c-1.14,0.35-2.72,0.79-4.82,0.79c-5.39,0-7.5-3.38-7.5-8.42L307.61,64.39L307.61,64.39z"/>
	<path class="st1" d="M323.53,59.34h5.26l0.44,3.82h0.18c1.58-2.94,3.95-4.34,6.18-4.34c1.23,0,1.97,0.18,2.59,0.44l-1.05,5.57
		c-0.79-0.22-1.45-0.35-2.37-0.35c-1.62,0-3.64,1.05-4.78,3.99V81.1h-6.45V59.34z"/>
	<path class="st1" d="M351.16,67.11c-0.13-1.93-1.1-3.16-3.42-3.16c-1.84,0-3.68,0.75-5.79,1.97l-2.28-4.25
		c2.76-1.67,5.88-2.85,9.3-2.85c5.57,0,8.64,3.16,8.64,9.83V81.1h-5.26l-0.48-2.24h-0.13c-1.84,1.62-3.9,2.76-6.36,2.76
		c-3.95,0-6.45-2.89-6.45-6.58C338.92,70.48,342.56,67.99,351.16,67.11z M347.56,76.62c1.49,0,2.46-0.7,3.6-1.84v-3.82
		c-4.61,0.61-6.1,1.93-6.1,3.6C345.06,75.97,346.02,76.62,347.56,76.62z"/>
	<path class="st1" d="M364.09,74.56c1.97,1.49,3.77,2.28,5.61,2.28c1.93,0,2.76-0.7,2.76-1.84c0-1.45-2.19-2.1-4.43-2.98
		c-2.63-1.01-5.75-2.81-5.75-6.4c0-4.04,3.29-6.8,8.33-6.8c3.33,0,5.79,1.36,7.68,2.76l-2.9,3.86c-1.58-1.14-3.07-1.84-4.61-1.84
		c-1.67,0-2.46,0.61-2.46,1.71c0,1.4,2.02,1.93,4.25,2.76c2.76,1.01,5.88,2.54,5.88,6.54c0,3.95-3.11,7.02-8.95,7.02
		c-2.85,0-6.14-1.23-8.33-3.03L364.09,74.56z"/>
	<path class="st1" d="M383.43,64.39h-2.98v-4.78l3.33-0.26l0.75-5.79h5.35v5.79h5.22v5.04h-5.22v8.73c0,2.46,1.1,3.46,2.81,3.46
		c0.7,0,1.49-0.22,2.06-0.44l1.01,4.69c-1.14,0.35-2.72,0.79-4.83,0.79c-5.39,0-7.5-3.38-7.5-8.42V64.39z"/>
	<path class="st1" d="M168.55,127.27h-9.35v-14.98l10.45-0.82l2.34-18.14h16.77v18.14h16.35v15.8h-16.35v27.35
		c0,7.7,3.44,10.86,8.8,10.86c2.2,0,4.67-0.69,6.46-1.38l3.16,14.71c-3.57,1.1-8.52,2.47-15.12,2.47c-16.9,0-23.5-10.58-23.5-26.39
		v-27.62H168.55z"/>
	<path class="st1" d="M245.23,109.82c19.38,0,29,14.16,29,32.71c0,3.57-0.41,6.87-0.83,8.52h-40.82
		c1.79,10.31,8.66,14.84,17.73,14.84c5.08,0,9.76-1.51,14.71-4.54l6.73,12.23c-7.01,4.81-16.08,7.7-24.19,7.7
		c-19.52,0-34.5-13.19-34.5-35.73C213.07,123.42,228.88,109.82,245.23,109.82z M257.05,138.54c0-7.84-3.3-13.33-11.41-13.33
		c-6.32,0-11.82,4.26-13.19,13.33H257.05z"/>
	<path class="st1" d="M299.93,144.18l-19.65-32.71h21.71l6.05,10.99c1.79,3.85,3.85,7.84,5.77,11.68h0.55
		c1.37-3.85,3.16-7.83,4.67-11.68l4.67-10.99h20.89l-19.79,35.04l21.03,33.12h-21.71l-6.6-11.27c-2.2-3.85-4.26-7.97-6.46-11.82
		h-0.55c-1.65,3.85-3.57,7.83-5.22,11.82l-5.36,11.27h-20.89L299.93,144.18z"/>
	<path class="st1" d="M359.43,127.27h-9.35v-14.98l10.45-0.82l2.34-18.14h16.77v18.14h16.35v15.8h-16.35v27.35
		c0,7.7,3.44,10.86,8.8,10.86c2.2,0,4.67-0.69,6.46-1.38l3.16,14.71c-3.57,1.1-8.52,2.47-15.12,2.47c-16.9,0-23.5-10.58-23.5-26.39
		L359.43,127.27L359.43,127.27z"/>
</g>
<g>
	<polygon class="st2" points="310.38,289.14 246.97,289.14 254.47,240.92 303.37,240.92 	"/>
	<path class="st3" d="M455.62,11.71h-353.9c-5.51,0-9.99,4.47-9.99,9.99v224.43c0,5.51,4.47,9.99,9.99,9.99h353.9
		c5.51,0,9.99-4.47,9.99-9.99V21.7C465.61,16.18,461.14,11.71,455.62,11.71z M451.74,213.27H105.61V22.28h346.13V213.27z"/>
	<g>
		<g>
			<defs>
				<path id="SVGID_1_" d="M455.62,11.71h-353.9c-5.51,0-9.99,4.47-9.99,9.99v224.43c0,5.51,4.47,9.99,9.99,9.99h353.9
					c5.51,0,9.99-4.47,9.99-9.99V21.7C465.61,16.18,461.14,11.71,455.62,11.71z M451.74,213.27H105.61V22.28h346.13V213.27z"/>
			</defs>
			<clipPath id="SVGID_2_">
				<use xlink:href="#SVGID_1_"  style="overflow:visible;"/>
			</clipPath>
			<rect x="79.19" y="224.08" class="st4" width="412.18" height="48.88"/>
		</g>
	</g>
	<path class="st5" d="M224.93,297.73h106.38c3.68,0,5.46-4.51,2.77-7.03l-1.27-1.19c-5.69-5.33-13.2-8.3-21-8.3h-67.07
		c-7.03,0-13.85,2.41-19.32,6.83l-3.05,2.46C219.4,292.92,221.1,297.73,224.93,297.73z"/>
</g>
<circle class="st3" cx="278.67" cy="239.93" r="8.92"/>
</svg>
