<?xml version="1.0" encoding="utf-8"?>
<!-- Generator: Adobe Illustrator 24.0.1, SVG Export Plug-In . SVG Version: 6.00 Build 0)  -->
<svg version="1.1" id="Layer_1" xmlns="http://www.w3.org/2000/svg" xmlns:xlink="http://www.w3.org/1999/xlink" x="0px" y="0px"
	 viewBox="0 0 560 77.39" style="enable-background:new 0 0 560 77.39;" xml:space="preserve">
<style type="text/css">
	.st0{enable-background:new    ;}
	.st1{fill:#FF0000;}
	.st2{fill:#868686;}
</style>
<g class="st0">
	<path class="st1" d="M36.15,51.88c2.37,2.12,5.12,3.75,7.99,3.75c3.75,0,5.87-1.62,5.87-5.12c0-3.37-2.25-5.12-5.37-5.12
		c-2.12,0-3.12,0.38-5.49,1.87l-4.62-3l1-20.35H59v8.99H44.76l-0.5,5.74c1.37-0.5,2.43-0.62,3.75-0.62
		c6.87,0,12.74,3.87,12.74,12.24c0,8.87-6.93,13.99-14.99,13.99c-6.49,0-11.11-2.37-14.36-5.62L36.15,51.88z"/>
	<path class="st1" d="M72.86,44.02v-0.25c-3.12-2.37-5.25-5.25-5.25-9.37c0-6.99,5.49-11.24,13.24-11.24
		c7.37,0,12.36,4.25,12.36,10.99c0,3.62-2.25,6.49-5.06,8.31v0.25c3.87,2.06,6.81,5.18,6.81,10.43c0,6.37-5.81,11.11-14.49,11.11
		c-8.05,0-14.11-4.37-14.11-10.86C66.37,48.76,69.12,46.02,72.86,44.02z M80.73,56.88c2.37,0,4.31-1.12,4.31-4.12
		c0-2.87-2.75-4-7.43-5.99c-1.19,1.37-2.06,3.37-2.06,5.37C75.55,55.26,77.98,56.88,80.73,56.88z M84.6,34.9c0-2.75-1.5-4.37-4-4.37
		c-1.94,0-3.62,1.12-3.62,3.87c0,2.62,2.12,4,5.87,5.5C83.98,38.27,84.6,36.65,84.6,34.9z"/>
	<path class="st1" d="M98.84,35.02c0-8.12,4.5-12.86,10.49-12.86s10.49,4.75,10.49,12.86c0,8.12-4.5,12.99-10.49,12.99
		S98.84,43.14,98.84,35.02z M112.45,35.02c0-5.49-1.5-6.99-3.12-6.99c-1.62,0-3.12,1.5-3.12,6.99c0,5.5,1.5,7.12,3.12,7.12
		C110.95,42.14,112.45,40.52,112.45,35.02z M110.83,64.25l21.73-42.08h5.99l-21.73,42.08H110.83z M129.43,51.26
		c0-8.12,4.5-12.86,10.49-12.86s10.49,4.75,10.49,12.86s-4.5,12.99-10.49,12.99S129.43,59.38,129.43,51.26z M143.04,51.26
		c0-5.49-1.5-6.99-3.12-6.99c-1.62,0-3.12,1.5-3.12,6.99c0,5.5,1.5,7.12,3.12,7.12C141.55,58.38,143.04,56.75,143.04,51.26z"/>
</g>
<g class="st0">
</g>
<g class="st0">
	<path class="st2" d="M170.15,18.42h1.87v13.36v6.74c3.25-3.25,6.37-5.62,10.49-5.62c6.12,0,8.99,3.62,8.99,11.36V63.5h-1.87V44.52
		c0-6.62-2.12-9.87-7.24-9.87c-3.75,0-6.49,2-10.37,5.99V63.5h-1.87V18.42z"/>
	<path class="st2" d="M220.6,44.89c0.12-4.87-1.12-10.24-7.37-10.24c-4.25,0-7.87,2.12-9.74,3.62l-1-1.5
		c1.87-1.37,5.99-3.87,10.86-3.87c6.99,0,9.12,5.24,9.12,11.24V63.5h-1.62l-0.25-4h-0.12c-3.12,2.5-6.87,4.75-10.86,4.75
		c-4.62,0-8.62-2.37-8.62-8.05C201,49.51,207.12,46.39,220.6,44.89z M209.74,62.5c3.62,0,6.87-1.75,10.86-5.12V46.51
		c-13.11,1.5-17.61,4.5-17.61,9.62C203,60.75,206.12,62.5,209.74,62.5z"/>
	<path class="st2" d="M244.33,32.9c3.62,0,6.12,1.37,9.24,3.75l-0.12-5.62V18.42h1.87V63.5h-1.62l-0.25-4h-0.12
		c-2.5,2.5-5.87,4.75-9.99,4.75c-7.49,0-12.36-5.49-12.36-15.61C230.97,39.02,237.09,32.9,244.33,32.9z M243.46,62.5
		c3.5,0,6.62-1.87,9.99-5.25V38.77c-3.37-3-6.12-4.12-9.24-4.12c-6.37,0-11.24,6.24-11.24,13.99
		C232.97,56.88,236.71,62.5,243.46,62.5z"/>
</g>
</svg>
