<?xml version="1.0" encoding="utf-8"?>
<!-- Generator: Adobe Illustrator 24.0.1, SVG Export Plug-In . SVG Version: 6.00 Build 0)  -->
<svg version="1.1" id="Layer_1" xmlns="http://www.w3.org/2000/svg" xmlns:xlink="http://www.w3.org/1999/xlink" x="0px" y="0px"
	 viewBox="0 0 560 159.96" style="enable-background:new 0 0 560 159.96;" xml:space="preserve">
<style type="text/css">
	.st0{fill:#FF0000;}
</style>
<path class="st0" d="M64.13,124.47c30.9-28.43,54.79-50.26,54.79-67.98c0-11.74-6.59-17.3-16.07-17.3
	c-8.65,0-15.24,6.18-21.42,12.36L62.48,32.6c13.6-14.42,25.95-21.01,45.32-21.01c26.37,0,44.91,16.89,44.91,42.85
	c0,21.01-19.77,44.08-37.49,62.21c6.59-0.82,16.07-1.65,21.83-1.65h21.83v29.66H64.13V124.47z"/>
<path class="st0" d="M174.96,78.74c0-44.7,19.77-67.15,48.61-67.15s48.61,22.66,48.61,67.15c0,44.7-19.77,68.39-48.61,68.39
	S174.96,123.44,174.96,78.74z M238.82,78.74c0-34.61-7-39.96-15.24-39.96c-8.24,0-15.24,5.36-15.24,39.96s7,41.2,15.24,41.2
	C231.81,119.94,238.82,113.35,238.82,78.74z"/>
<path class="st0" d="M292.8,116.23h28.01V48.67h-24.72V26.84c14.83-2.88,24.31-6.59,34.19-12.77h25.95v102.17h23.48v28.43H292.8
	V116.23z"/>
<path class="st0" d="M417.23,109.64c4.12,4.53,12.36,9.06,19.77,9.06c12.98,0,22.87-8.86,24.1-35.22
	c-6.38,8.45-17.51,12.98-24.51,12.98c-22.25,0-39.55-12.36-39.55-40.37s20.6-44.49,45.32-44.49c25.13,0,51.08,18.13,51.08,65.5
	s-25.95,70.04-53.97,70.04c-18.54,0-32.13-7.83-40.79-16.48L417.23,109.64z M460.28,60.62c-2.88-18.33-10.71-22.66-17.09-22.66
	c-7.42,0-14.01,4.33-14.01,18.13c0,12.57,7,15.66,14.42,15.66C449.57,71.74,455.54,68.65,460.28,60.62z"/>
</svg>
