<?xml version="1.0" encoding="utf-8"?>
<!-- Generator: Adobe Illustrator 24.0.1, SVG Export Plug-In . SVG Version: 6.00 Build 0)  -->
<svg version="1.1" id="Layer_1" xmlns="http://www.w3.org/2000/svg" xmlns:xlink="http://www.w3.org/1999/xlink" x="0px" y="0px"
	 viewBox="0 0 560 377.06" style="enable-background:new 0 0 560 377.06;" xml:space="preserve">
<style type="text/css">
	.st0{fill:#FF0000;}
	.st1{fill:#ABABAB;}
	.st2{fill:#3D3D3D;}
	.st3{clip-path:url(#SVGID_2_);fill:#C8C8C8;}
	.st4{fill:#D6D6D6;}
	.st5{enable-background:new    ;}
	.st6{fill:#FFFFFF;}
</style>
<rect x="95.37" y="16.04" class="st0" width="361.65" height="204.11"/>
<g>
	<polygon class="st1" points="310.38,290.17 246.97,290.17 254.47,241.95 303.37,241.95 	"/>
	<path class="st2" d="M455.62,12.73h-353.9c-5.51,0-9.99,4.47-9.99,9.99v224.43c0,5.51,4.47,9.99,9.99,9.99h353.9
		c5.51,0,9.99-4.47,9.99-9.99V22.72C465.61,17.21,461.14,12.73,455.62,12.73z M451.74,214.29H105.61V23.3h346.13V214.29z"/>
	<g>
		<g>
			<defs>
				<path id="SVGID_1_" d="M455.62,12.73h-353.9c-5.51,0-9.99,4.47-9.99,9.99v224.43c0,5.51,4.47,9.99,9.99,9.99h353.9
					c5.51,0,9.99-4.47,9.99-9.99V22.72C465.61,17.21,461.14,12.73,455.62,12.73z M451.74,214.29H105.61V23.3h346.13V214.29z"/>
			</defs>
			<clipPath id="SVGID_2_">
				<use xlink:href="#SVGID_1_"  style="overflow:visible;"/>
			</clipPath>
			<rect x="79.19" y="225.1" class="st3" width="412.18" height="48.88"/>
		</g>
	</g>
	<path class="st4" d="M224.93,298.75h106.38c3.68,0,5.46-4.51,2.77-7.03l-1.27-1.19c-5.69-5.33-13.2-8.3-21-8.3h-67.07
		c-7.03,0-13.85,2.41-19.32,6.83l-3.05,2.46C219.4,293.94,221.1,298.75,224.93,298.75z"/>
</g>
<circle class="st2" cx="278.67" cy="240.95" r="8.92"/>
<g class="st5">
	<path class="st6" d="M156.97,51.31h4.31l0.36,2.3h0.14c1.47-1.47,3.05-2.73,5.38-2.73c2.51,0,4.02,1.08,4.91,2.98
		c1.58-1.61,3.23-2.98,5.6-2.98c3.84,0,5.56,2.73,5.56,7.17V69.1h-5.27V58.73c0-2.58-0.68-3.37-2.19-3.37c-0.9,0-1.9,0.57-3.05,1.72
		V69.1h-5.27V58.73c0-2.58-0.68-3.37-2.19-3.37c-0.86,0-1.9,0.57-3.01,1.72V69.1h-5.27V51.31z"/>
	<path class="st6" d="M187.28,45.92c0-1.61,1.29-2.73,3.05-2.73c1.79,0,3.05,1.11,3.05,2.73s-1.26,2.76-3.05,2.76
		C188.57,48.69,187.28,47.54,187.28,45.92z M187.71,51.31h5.27V69.1h-5.27V51.31z"/>
	<path class="st6" d="M198.4,63.75c1.61,1.22,3.08,1.87,4.59,1.87c1.58,0,2.26-0.57,2.26-1.51c0-1.18-1.79-1.72-3.62-2.44
		c-2.15-0.83-4.7-2.3-4.7-5.24c0-3.3,2.69-5.56,6.82-5.56c2.73,0,4.74,1.11,6.28,2.26l-2.37,3.16c-1.29-0.93-2.51-1.51-3.77-1.51
		c-1.36,0-2.01,0.5-2.01,1.4c0,1.15,1.65,1.58,3.48,2.26c2.26,0.83,4.81,2.08,4.81,5.34c0,3.23-2.55,5.74-7.32,5.74
		c-2.33,0-5.02-1-6.82-2.48L198.4,63.75z"/>
	<path class="st6" d="M214.29,63.75c1.61,1.22,3.08,1.87,4.59,1.87c1.58,0,2.26-0.57,2.26-1.51c0-1.18-1.79-1.72-3.62-2.44
		c-2.15-0.83-4.7-2.3-4.7-5.24c0-3.3,2.69-5.56,6.82-5.56c2.73,0,4.74,1.11,6.28,2.26l-2.37,3.16c-1.29-0.93-2.51-1.51-3.77-1.51
		c-1.36,0-2.01,0.5-2.01,1.4c0,1.15,1.65,1.58,3.48,2.26c2.26,0.83,4.81,2.08,4.81,5.34c0,3.23-2.55,5.74-7.32,5.74
		c-2.33,0-5.02-1-6.82-2.48L214.29,63.75z"/>
	<path class="st6" d="M228.96,45.92c0-1.61,1.29-2.73,3.05-2.73c1.79,0,3.05,1.11,3.05,2.73s-1.26,2.76-3.05,2.76
		C230.25,48.69,228.96,47.54,228.96,45.92z M229.39,51.31h5.27V69.1h-5.27V51.31z"/>
	<path class="st6" d="M239.29,51.31h4.31l0.36,2.26h0.14c1.51-1.43,3.3-2.69,5.7-2.69c3.87,0,5.52,2.73,5.52,7.17V69.1h-5.27V58.73
		c0-2.58-0.68-3.37-2.19-3.37c-1.33,0-2.15,0.61-3.3,1.72V69.1h-5.27V51.31z"/>
	<path class="st6" d="M261.25,68.56v-0.14c-0.93-0.61-1.65-1.54-1.65-3.01c0-1.29,0.86-2.55,2.01-3.34v-0.14
		c-1.26-0.86-2.4-2.55-2.4-4.63c0-4.27,3.52-6.42,7.35-6.42c1,0,1.97,0.14,2.76,0.43h6.49v3.84h-2.83c0.32,0.54,0.57,1.4,0.57,2.33
		c0,4.09-3.08,5.99-7,5.99c-0.65,0-1.36-0.11-2.15-0.36c-0.47,0.39-0.65,0.72-0.65,1.33c0,0.9,0.72,1.33,2.69,1.33h2.87
		c4.38,0,6.78,1.33,6.78,4.52c0,3.7-3.84,6.39-9.94,6.39c-4.16,0-7.46-1.36-7.46-4.52C258.7,70.68,259.6,69.49,261.25,68.56z
		 M266.99,73.37c2.37,0,4.09-0.97,4.09-2.19c0-1.11-0.97-1.4-2.73-1.4h-1.83c-1.22,0-1.94-0.07-2.51-0.21
		c-0.65,0.57-0.97,1.11-0.97,1.76C263.04,72.65,264.62,73.37,266.99,73.37z M269,57.3c0-1.87-1.04-2.87-2.44-2.87
		c-1.4,0-2.44,0.97-2.44,2.87c0,1.97,1.04,2.98,2.44,2.98C267.96,60.27,269,59.27,269,57.3z"/>
	<path class="st6" d="M295.79,57.66c-0.11-1.58-0.9-2.58-2.8-2.58c-1.51,0-3.01,0.61-4.74,1.61l-1.87-3.48
		c2.26-1.36,4.81-2.33,7.6-2.33c4.56,0,7.07,2.58,7.07,8.04V69.1h-4.3l-0.39-1.83h-0.11c-1.51,1.33-3.19,2.26-5.2,2.26
		c-3.23,0-5.27-2.37-5.27-5.38C285.78,60.42,288.76,58.37,295.79,57.66z M292.85,65.44c1.22,0,2.01-0.57,2.94-1.51v-3.12
		c-3.77,0.5-4.99,1.58-4.99,2.94C290.8,64.9,291.59,65.44,292.85,65.44z"/>
	<path class="st6" d="M305.58,43.95h5.27v19.84c0,1.11,0.5,1.47,0.93,1.47c0.21,0,0.36,0,0.65-0.07l0.65,3.91
		c-0.57,0.25-1.47,0.43-2.65,0.43c-3.62,0-4.84-2.37-4.84-5.96V43.95z"/>
	<path class="st6" d="M316.56,55.43h-2.44v-3.91l2.73-0.21l0.61-4.74h4.38v4.74h4.27v4.12h-4.27v7.14c0,2.01,0.9,2.83,2.3,2.83
		c0.57,0,1.22-0.18,1.69-0.36l0.83,3.84c-0.93,0.29-2.22,0.65-3.95,0.65c-4.41,0-6.13-2.76-6.13-6.89V55.43z"/>
	<path class="st6" d="M337.76,55.43h-2.44v-3.91l2.73-0.21l0.61-4.74h4.38v4.74h4.27v4.12h-4.27v7.14c0,2.01,0.9,2.83,2.3,2.83
		c0.57,0,1.22-0.18,1.69-0.36l0.83,3.84c-0.93,0.29-2.22,0.65-3.95,0.65c-4.41,0-6.13-2.76-6.13-6.89V55.43z"/>
	<path class="st6" d="M357.78,50.88c5.06,0,7.57,3.7,7.57,8.54c0,0.93-0.11,1.79-0.21,2.22h-10.66c0.47,2.69,2.26,3.88,4.63,3.88
		c1.33,0,2.55-0.4,3.84-1.18l1.76,3.19c-1.83,1.25-4.2,2.01-6.31,2.01c-5.09,0-9-3.44-9-9.33
		C349.38,54.43,353.51,50.88,357.78,50.88z M360.86,58.37c0-2.04-0.86-3.48-2.98-3.48c-1.65,0-3.08,1.11-3.44,3.48H360.86z"/>
	<path class="st6" d="M372.05,59.84l-5.13-8.54h5.67l1.58,2.87c0.47,1,1,2.04,1.51,3.05h0.14c0.36-1,0.83-2.04,1.22-3.05l1.22-2.87
		h5.45l-5.17,9.15l5.49,8.65h-5.67l-1.72-2.94c-0.57-1-1.11-2.08-1.69-3.08h-0.14c-0.43,1-0.93,2.04-1.36,3.08l-1.4,2.94h-5.45
		L372.05,59.84z"/>
	<path class="st6" d="M387.58,55.43h-2.44v-3.91l2.73-0.21l0.61-4.74h4.38v4.74h4.27v4.12h-4.27v7.14c0,2.01,0.9,2.83,2.3,2.83
		c0.57,0,1.22-0.18,1.69-0.36l0.83,3.84c-0.93,0.29-2.22,0.65-3.95,0.65c-4.41,0-6.13-2.76-6.13-6.89V55.43z"/>
</g>
<g class="st5">
	<path class="st6" d="M209.38,91.08c-0.61-0.21-1.26-0.36-1.83-0.36c-1.29,0-2.04,0.72-2.04,2.55v1.08h3.19v4.12h-3.19v13.67h-5.27
		V98.47h-2.37v-3.91l2.37-0.18v-0.97c0-3.77,1.76-6.85,6.56-6.85c1.47,0,2.76,0.36,3.55,0.65L209.38,91.08z"/>
	<path class="st6" d="M218.85,93.92c4.48,0,8.65,3.41,8.65,9.33s-4.16,9.33-8.65,9.33c-4.52,0-8.68-3.41-8.68-9.33
		S214.33,93.92,218.85,93.92z M218.85,108.3c2.15,0,3.26-1.97,3.26-5.06s-1.11-5.06-3.26-5.06c-2.19,0-3.26,1.97-3.26,5.06
		S216.66,108.3,218.85,108.3z"/>
	<path class="st6" d="M231.11,94.35h4.31l0.36,3.12h0.14c1.29-2.4,3.23-3.55,5.06-3.55c1,0,1.61,0.14,2.12,0.36l-0.86,4.56
		c-0.65-0.18-1.18-0.29-1.94-0.29c-1.33,0-2.98,0.86-3.91,3.26v10.33h-5.27V94.35z"/>
	<path class="st6" d="M252.42,88.96c0-1.61,1.29-2.73,3.05-2.73c1.79,0,3.05,1.11,3.05,2.73s-1.26,2.76-3.05,2.76
		C253.71,91.73,252.42,90.58,252.42,88.96z M252.85,94.35h5.27v17.79h-5.27V94.35z"/>
	<path class="st6" d="M262.75,94.35h4.31l0.36,2.3h0.14c1.47-1.47,3.05-2.73,5.38-2.73c2.51,0,4.02,1.08,4.91,2.98
		c1.58-1.61,3.23-2.98,5.6-2.98c3.84,0,5.56,2.73,5.56,7.17v11.05h-5.27v-10.37c0-2.58-0.68-3.37-2.19-3.37
		c-0.9,0-1.9,0.57-3.05,1.72v12.02h-5.27v-10.37c0-2.58-0.68-3.37-2.19-3.37c-0.86,0-1.9,0.57-3.01,1.72v12.02h-5.27V94.35z"/>
	<path class="st6" d="M302.85,100.7c-0.11-1.58-0.9-2.58-2.8-2.58c-1.51,0-3.01,0.61-4.74,1.61l-1.87-3.48
		c2.26-1.36,4.81-2.33,7.6-2.33c4.56,0,7.07,2.58,7.07,8.04v10.19h-4.3l-0.39-1.83h-0.11c-1.51,1.33-3.19,2.26-5.2,2.26
		c-3.23,0-5.27-2.37-5.27-5.38C292.85,103.46,295.82,101.41,302.85,100.7z M299.91,108.48c1.22,0,2.01-0.57,2.94-1.51v-3.12
		c-3.77,0.5-4.99,1.58-4.99,2.94C297.87,107.94,298.66,108.48,299.91,108.48z"/>
	<path class="st6" d="M314.08,111.6v-0.14c-0.93-0.61-1.65-1.54-1.65-3.01c0-1.29,0.86-2.55,2.01-3.34v-0.14
		c-1.26-0.86-2.4-2.55-2.4-4.63c0-4.27,3.51-6.42,7.35-6.42c1,0,1.97,0.14,2.76,0.43h6.49v3.84h-2.83c0.32,0.54,0.57,1.4,0.57,2.33
		c0,4.09-3.08,5.99-7,5.99c-0.65,0-1.36-0.11-2.15-0.36c-0.47,0.39-0.65,0.72-0.65,1.33c0,0.9,0.72,1.33,2.69,1.33h2.87
		c4.38,0,6.78,1.33,6.78,4.52c0,3.7-3.84,6.39-9.94,6.39c-4.16,0-7.46-1.36-7.46-4.52C311.53,113.72,312.43,112.53,314.08,111.6z
		 M319.82,116.41c2.37,0,4.09-0.97,4.09-2.19c0-1.11-0.97-1.4-2.73-1.4h-1.83c-1.22,0-1.94-0.07-2.51-0.21
		c-0.65,0.57-0.97,1.11-0.97,1.76C315.88,115.69,317.45,116.41,319.82,116.41z M321.83,100.34c0-1.87-1.04-2.87-2.44-2.87
		s-2.44,0.97-2.44,2.87c0,1.97,1.04,2.98,2.44,2.98S321.83,102.31,321.83,100.34z"/>
	<path class="st6" d="M338.51,93.92c5.06,0,7.57,3.7,7.57,8.54c0,0.93-0.11,1.79-0.21,2.22h-10.65c0.47,2.69,2.26,3.88,4.63,3.88
		c1.33,0,2.55-0.4,3.84-1.18l1.76,3.19c-1.83,1.25-4.2,2.01-6.31,2.01c-5.09,0-9-3.44-9-9.33
		C330.12,97.47,334.24,93.92,338.51,93.92z M341.6,101.41c0-2.04-0.86-3.48-2.98-3.48c-1.65,0-3.08,1.11-3.44,3.48H341.6z"/>
	<path class="st6" d="M350.53,106.79c1.61,1.22,3.08,1.87,4.59,1.87c1.58,0,2.26-0.57,2.26-1.51c0-1.18-1.79-1.72-3.62-2.44
		c-2.15-0.83-4.7-2.3-4.7-5.24c0-3.3,2.69-5.56,6.82-5.56c2.73,0,4.74,1.11,6.28,2.26l-2.37,3.16c-1.29-0.93-2.51-1.51-3.77-1.51
		c-1.36,0-2.01,0.5-2.01,1.4c0,1.15,1.65,1.58,3.48,2.26c2.26,0.83,4.81,2.08,4.81,5.34c0,3.23-2.55,5.74-7.32,5.74
		c-2.33,0-5.02-1-6.82-2.48L350.53,106.79z"/>
</g>
<path class="st6" d="M413.45,196H145.82c-3.07,0-5.56-2.49-5.56-5.56v-59.02h278.75v59.02C419.01,193.51,416.52,196,413.45,196z"/>
<g class="st5">
	<path class="st2" d="M222.07,166.07c-0.19-2.8-1.59-4.58-4.96-4.58c-2.67,0-5.34,1.08-8.39,2.86l-3.31-6.17
		c4.01-2.42,8.52-4.13,13.48-4.13c8.08,0,12.53,4.58,12.53,14.24v18.06h-7.63l-0.7-3.24h-0.19c-2.67,2.35-5.66,4.01-9.22,4.01
		c-5.72,0-9.35-4.2-9.35-9.54C204.33,170.96,209.61,167.34,222.07,166.07z M216.86,179.87c2.16,0,3.56-1.02,5.21-2.67v-5.53
		c-6.68,0.89-8.84,2.8-8.84,5.21C213.24,178.91,214.64,179.87,216.86,179.87z"/>
	<path class="st2" d="M239.43,141.78h9.35v35.16c0,1.97,0.89,2.61,1.65,2.61c0.38,0,0.64,0,1.14-0.13l1.14,6.93
		c-1.02,0.45-2.61,0.76-4.71,0.76c-6.42,0-8.58-4.2-8.58-10.55V141.78z"/>
	<path class="st2" d="M258.89,162.13h-4.32v-6.93l4.83-0.38l1.08-8.39h7.76v8.39h7.57v7.31h-7.57v12.65c0,3.56,1.59,5.02,4.07,5.02
		c1.02,0,2.16-0.32,2.99-0.64l1.46,6.8c-1.65,0.51-3.94,1.14-6.99,1.14c-7.82,0-10.87-4.9-10.87-12.21V162.13z"/>
	<path class="st2" d="M280,154.69h29.25v6.55H280V154.69z M280,169.5h29.25v6.55H280V169.5z"/>
	<path class="st2" d="M325.97,146.99c-3.81,1.91-5.72,4.26-5.72,8.08c0.19-0.06,0.45-0.06,0.64-0.06c2.67,0,4.9,1.78,4.9,4.64
		c0,3.18-2.1,5.21-4.9,5.21c-3.94,0-5.98-3.12-5.98-8.33c0-5.98,2.92-10.62,9.03-13.61L325.97,146.99z M341.04,146.99
		c-3.81,1.91-5.72,4.26-5.72,8.08c0.19-0.06,0.45-0.06,0.64-0.06c2.67,0,4.83,1.78,4.83,4.64c0,3.18-2.04,5.21-4.83,5.21
		c-3.94,0-6.04-3.12-6.04-8.33c0-5.98,2.99-10.62,9.09-13.61L341.04,146.99z"/>
	<path class="st2" d="M350.06,159.9c3.82-1.91,5.72-4.26,5.72-8.07c-0.19,0.06-0.38,0.06-0.57,0.06c-2.73,0-4.9-1.78-4.9-4.64
		c0-3.18,2.04-5.21,4.9-5.21c3.88,0,5.98,3.05,5.98,8.33c0,5.98-2.99,10.62-9.09,13.61L350.06,159.9z M365.13,159.9
		c3.81-1.91,5.72-4.26,5.72-8.07c-0.19,0.06-0.45,0.06-0.64,0.06c-2.67,0-4.9-1.78-4.9-4.64c0-3.18,2.1-5.21,4.9-5.21
		c3.94,0,5.98,3.05,5.98,8.33c0,5.98-2.92,10.62-9.03,13.61L365.13,159.9z"/>
</g>
</svg>
