<?xml version="1.0" encoding="utf-8"?>
<!-- Generator: Adobe Illustrator 24.0.1, SVG Export Plug-In . SVG Version: 6.00 Build 0)  -->
<svg version="1.1" id="Layer_1" xmlns="http://www.w3.org/2000/svg" xmlns:xlink="http://www.w3.org/1999/xlink" x="0px" y="0px"
	 viewBox="0 0 560 377.06" style="enable-background:new 0 0 560 377.06;" xml:space="preserve">
<style type="text/css">
	.st0{fill:#FF0000;}
	.st1{fill:#ABABAB;}
	.st2{fill:#3D3D3D;}
	.st3{clip-path:url(#SVGID_2_);fill:#C8C8C8;}
	.st4{fill:#D6D6D6;}
	.st5{fill:#FFFFFF;}
	.st6{font-family:'SourceSansPro-Bold';}
	.st7{font-size:35.8711px;}
	.st8{font-size:63.5824px;}
</style>
<rect x="95.37" y="16.04" class="st0" width="361.65" height="204.11"/>
<g>
	<polygon class="st1" points="310.38,290.17 246.97,290.17 254.47,241.95 303.37,241.95 	"/>
	<path class="st2" d="M455.62,12.73h-353.9c-5.51,0-9.99,4.47-9.99,9.99v224.43c0,5.51,4.47,9.99,9.99,9.99h353.9
		c5.51,0,9.99-4.47,9.99-9.99V22.72C465.61,17.21,461.14,12.73,455.62,12.73z M451.74,214.29H105.61V23.3h346.13V214.29z"/>
	<g>
		<defs>
			<path id="SVGID_1_" d="M455.62,12.73h-353.9c-5.51,0-9.99,4.47-9.99,9.99v224.43c0,5.51,4.47,9.99,9.99,9.99h353.9
				c5.51,0,9.99-4.47,9.99-9.99V22.72C465.61,17.21,461.14,12.73,455.62,12.73z M451.74,214.29H105.61V23.3h346.13V214.29z"/>
		</defs>
		<clipPath id="SVGID_2_">
			<use xlink:href="#SVGID_1_"  style="overflow:visible;"/>
		</clipPath>
		<rect x="79.19" y="225.1" class="st3" width="412.18" height="48.88"/>
	</g>
	<path class="st4" d="M224.93,298.75h106.38c3.68,0,5.46-4.51,2.77-7.03l-1.27-1.19c-5.69-5.33-13.2-8.3-21-8.3h-67.07
		c-7.03,0-13.85,2.41-19.32,6.83l-3.05,2.46C219.4,293.94,221.1,298.75,224.93,298.75z"/>
</g>
<circle class="st2" cx="278.67" cy="240.95" r="8.92"/>
<text transform="matrix(1 0 0 1 154.6397 69.0986)"><tspan x="0" y="0" class="st5 st6 st7">missing alt text  </tspan><tspan x="42.36" y="43.04" class="st5 st6 st7">for images</tspan></text>
<path class="st5" d="M413.45,196H145.82c-3.07,0-5.56-2.49-5.56-5.56v-59.02h278.75v59.02C419.01,193.51,416.52,196,413.45,196z"/>
<text transform="matrix(1 0 0 1 201.3469 186.3517)" class="st2 st6 st8">alt=“”</text>
</svg>
