<?xml version="1.0" encoding="utf-8"?>
<!-- Generator: Adobe Illustrator 24.0.1, SVG Export Plug-In . SVG Version: 6.00 Build 0)  -->
<svg version="1.1" id="Layer_1" xmlns="http://www.w3.org/2000/svg" xmlns:xlink="http://www.w3.org/1999/xlink" x="0px" y="0px"
	 viewBox="0 0 560 92.7" style="enable-background:new 0 0 560 92.7;" xml:space="preserve">
<style type="text/css">
	.st0{fill:#3D3D3D;}
</style>
<g>
	<path class="st0" d="M42.3,30.11h11.59V73.9H42.3V30.11z"/>
	<path class="st0" d="M62.64,40.21h9.43l0.81,4.04h0.27c2.69-2.56,6.06-4.85,10.65-4.85c7.41,0,10.51,5.39,10.51,13.74V73.9H82.72
		V54.63c0-4.31-1.08-5.39-3.37-5.39c-2.16,0-3.37,0.94-5.12,2.56v22.1H62.64V40.21z"/>
	<path class="st0" d="M116.95,30.11h28.57v9.7h-16.98v8.35h14.55v9.7h-14.55V73.9h-11.59V30.11z"/>
	<path class="st0" d="M165.2,39.4c9.97,0,14.69,7.28,14.69,16.3c0,2.02-0.27,3.77-0.47,4.58h-19.2c1.08,4.31,4.04,5.66,7.82,5.66
		c2.29,0,4.45-0.67,6.87-2.02l3.77,6.87c-3.64,2.56-8.49,3.91-12.26,3.91c-9.84,0-17.38-6.47-17.38-17.65
		C149.03,46.14,156.98,39.4,165.2,39.4z M170.05,53.28c0-2.83-1.08-5.12-4.58-5.12c-2.56,0-4.72,1.41-5.39,5.12H170.05z"/>
	<path class="st0" d="M186.22,27.01h11.59v10.91l-0.27,4.85c2.36-2.16,5.32-3.37,8.29-3.37c7.95,0,13.14,6.74,13.14,17.05
		c0,11.66-6.87,18.26-14.01,18.26c-2.96,0-5.93-1.48-8.49-4.45h-0.27l-0.94,3.64h-9.03V27.01z M202.12,65.28
		c2.69,0,4.99-2.16,4.99-8.62c0-5.52-1.62-7.82-4.72-7.82c-1.75,0-3.1,0.67-4.58,2.43v12.4C199.16,64.87,200.64,65.28,202.12,65.28z
		"/>
	<path class="st0" d="M225.3,40.21h9.43l0.81,5.79h0.27c2.49-4.58,6.27-6.6,9.57-6.6c2.09,0,3.23,0.27,4.18,0.67l-1.89,9.97
		c-1.21-0.27-2.29-0.54-3.77-0.54c-2.43,0-5.39,1.48-7.01,5.66V73.9H225.3V40.21z"/>
	<path class="st0" d="M253.2,40.21h11.59v19.27c0,4.31,1.08,5.39,3.37,5.39c2.16,0,3.37-0.81,4.85-2.96V40.21h11.59V73.9h-9.43
		l-0.81-4.45h-0.27c-2.69,3.23-5.79,5.26-10.38,5.26c-7.41,0-10.51-5.39-10.51-13.74V40.21z"/>
	<path class="st0" d="M309.66,52.07c-0.27-2.43-1.75-3.5-4.72-3.5c-2.43,0-4.99,0.94-8.49,2.83l-4.04-7.55
		c4.72-2.83,9.57-4.45,14.82-4.45c8.76,0,14.01,4.72,14.01,15.77V73.9h-9.43l-0.81-3.23h-0.27c-2.69,2.43-5.66,4.04-9.3,4.04
		c-6.33,0-10.11-4.85-10.11-10.38C291.34,57.32,296.73,53.42,309.66,52.07z M305.49,65.81c1.89,0,2.96-0.94,4.18-2.29v-4.58
		c-5.52,0.81-7.28,2.56-7.28,4.45C302.39,64.94,303.46,65.81,305.49,65.81z"/>
	<path class="st0" d="M328.94,40.21h9.43l0.81,5.79h0.27c2.49-4.58,6.27-6.6,9.57-6.6c2.09,0,3.23,0.27,4.18,0.67l-1.89,9.97
		c-1.21-0.27-2.29-0.54-3.77-0.54c-2.43,0-5.39,1.48-7.01,5.66V73.9h-11.59V40.21z"/>
	<path class="st0" d="M361.14,77.54c3.1,0,4.58-1.35,5.26-3.37l0.4-1.48L354,40.21h11.59l4.04,12.94c0.94,3.1,1.62,6.2,2.43,9.57
		h0.27c0.67-3.23,1.35-6.33,2.16-9.57l3.37-12.94h11.05l-11.32,33.15c-3.5,9.1-7.14,13.21-15.5,13.21c-2.29,0-3.64-0.27-5.12-0.67
		l2.02-8.76C359.59,77.27,360.47,77.54,361.14,77.54z"/>
</g>
</svg>
